<?xml version="1.0" encoding="utf-8"?>
<!-- Generator: Adobe Illustrator 16.0.3, SVG Export Plug-In . SVG Version: 6.00 Build 0)  -->
<!DOCTYPE svg PUBLIC "-//W3C//DTD SVG 1.1//EN" "http://www.w3.org/Graphics/SVG/1.1/DTD/svg11.dtd">
<svg version="1.1" id="ballons__x26__palne_1_" xmlns="http://www.w3.org/2000/svg" xmlns:xlink="http://www.w3.org/1999/xlink"
	 x="0px" y="0px" width="1400px" height="236.566px" viewBox="0 0 1400 236.566" enable-background="new 0 0 1400 236.566"
	 xml:space="preserve">
<g>
	<rect x="271.1" y="218.3" fill="#90D26D" width="10.934" height="7.467"/>
	<rect x="271.1" y="207.9" fill="#90D26D" width="10.934" height="7.467"/>
	<rect x="249.9" y="218.3" fill="#90D26D" width="10.934" height="7.467"/>
	<path fill="#90D26D" d="M229.767,189.002c-6.902-0.512-13.967-0.978-21.181-1.4h1.764v-36.556v-1.044h0.635v-1.604h-14.89v1.74
		h0.59v1.058v12.591h-6.945v2.61h1.271v4.488h-2.996v2.702h0.862v12.99c-12.999-0.584-26.507-1.013-40.528-1.275
		c-4.118-0.077-8.266-0.145-12.476-0.192v-11.523v-2.702v-22.487V125.46v-4.6h1.135v-2.862H110.42v2.64v0.468h1.054v24.371H99.072
		v4.661h2.27v8.015h-5.35v4.825h1.54v22.313c-3.59,0.102-7.331,0.233-11.182,0.397v-33.686h0.635v-1.603H73.042h-0.947v1.74h0.59
		v6.217v7.43H65.74v2.61h1.271v4.488h-2.996v2.702h0.862v11.311c-23.63,1.674-48.143,4.619-64.877,9.445
		c-0.331,0.095-0.676,0.188-1,0.284v39.938h1h232.3v-40.8h-2.533V189.002z M74.592,185.892H70.87v-2.564h3.723V185.892z
		 M74.592,182.32H70.87v-2.565h3.723V182.32z M81.81,185.892h-3.723v-2.564h3.723V185.892z M81.81,182.32h-3.723v-2.565h3.723
		V182.32z M81.81,174.214h-3.723v-2.565h3.723V174.214z M81.81,170.642h-3.723v-2.565h3.723V170.642z M81.81,166.016h-3.723v-5.129
		h3.723V166.016z M81.81,157.772h-3.723v-5.13h3.723V157.772z M114.879,181.378h-6.647v-4.579h6.647V181.378z M114.879,174.999
		h-6.647v-4.579h6.647V174.999z M127.768,181.378h-6.647v-4.579h6.647V181.378z M127.768,174.999h-6.647v-4.579h6.647V174.999z
		 M127.768,160.523h-6.647v-4.579h6.647V160.523z M127.768,154.146h-6.647v-4.58h6.647V154.146z M127.768,145.886h-6.647v-9.16
		h6.647V145.886z M127.768,125.46v5.705h-6.647v-0.279v-8.881h6.647V125.46z M198.592,183.892h-3.723v-2.564h3.723V183.892z
		 M198.592,180.319h-3.723v-2.564h3.723V180.319z M205.81,183.892h-3.723v-2.564h3.723V183.892z M205.81,180.319h-3.723v-2.564
		h3.723V180.319z M205.81,172.214h-3.723v-2.565h3.723V172.214z M205.81,168.642h-3.723v-2.564h3.723V168.642z M205.81,164.016
		h-3.723v-5.129h3.723V164.016z M205.81,151.067v4.705h-3.723v-4.654v-0.476h3.723V151.067z"/>
	<rect x="249.9" y="207.9" fill="#90D26D" width="10.934" height="7.467"/>
	<path fill="#90D26D" d="M383.874,210.193v-54.014V144.86h1.135v-2.862H358.42v3.107h1.054v9.666v14.705h-12.402v4.661h2.27v8.015
		h-5.35v4.825h1.54v16.044c-15.658-2.673-32.322-5.197-50.165-7.462v41.007h89.642c19.243-4.828,37.628-9.477,55.378-13.903
		C423.006,218.613,404.347,214.344,383.874,210.193z M362.879,205.379h-3.996c-0.883-0.161-1.762-0.322-2.651-0.482v-4.098h6.647
		V205.379z M362.879,198.999h-6.647v-4.579h6.647V198.999z M375.768,205.379h-6.647v-4.58h6.647V205.379z M375.768,198.999h-6.647
		v-4.579h6.647V198.999z M375.768,184.524h-6.647v-4.58h6.647V184.524z M375.768,178.145h-6.647v-4.579h6.647V178.145z
		 M375.768,169.886h-6.647v-9.16h6.647V169.886z M375.768,155.164h-6.647v-9.159h6.647V155.164z"/>
</g>
<g>
	<path fill="#76C34D" d="M173.627,154.71h1.816v-3.729h-9.922v-19.496h0.843v-2.486h-3.956h-17.315v2.29h0.908v4.421v12.689h-10.127
		v22.487h0.141v2.702h-0.141v11.523c4.209,0.047,8.358,0.115,12.476,0.192v-0.301h28.326v-20.02h1.232v-3.86h-4.28V154.71z"/>
	<polygon fill="#76C34D" points="253.5,127.501 255.233,127.501 255.233,151.247 255.233,167.233 234.833,167.233 234.833,174.833 
		238.566,174.833 238.566,187.9 229.767,187.9 229.767,189.002 229.767,195.767 232.3,195.767 232.3,236.566 295.367,236.566 
		295.367,195.56 295.367,152.119 295.367,127.101 297.233,127.101 297.233,122.434 253.5,122.434 	"/>
	<path fill="#76C34D" d="M1092.35,229.63v-34.628h0.636v-1.604h-14.89v1.74h0.59v13.648h-6.945v2.61h1.271v4.488h-2.996v2.702h0.862
		v6.169c-2.97-0.645-6.038-1.3-9.202-1.966v-19.809h1.232v-3.86h-4.28v-6.412h1.816v-3.729h-9.923v-19.497h0.844v-2.486h-21.271
		v2.29h0.908v10.11h-10.127V151.86h1.135v-2.862h-19.207h-7.382v3.107h1.055v2.885v21.486h-12.403v4.661h2.271v8.015h-5.351v4.825
		h1.54v13.79c-3.689-0.637-7.417-1.271-11.182-1.904v-22.862h0.636v-1.604h-14.89v1.74h0.59v13.648h-6.945v2.61h1.271v3.29
		c-1.592-0.256-3.189-0.51-4.791-0.764v-5.664h1.521v-4.72h-5.28v-7.84h2.24v-4.561h-12.24v-17.199v-6.64h1.04v-3.04h-26.24v2.8
		h1.12v10.092v31.059c-36.808-5.272-74.746-9.852-110.646-12.895c-29.549-2.505-57.717-3.969-82.731-3.918
		c-26.466,0.053-51.806,1.509-76.81,4.114c-44.827,4.67-88.58,13.074-135.736,23.92v-9.642h3.078l-11.226-11.226l-11.226,11.226
		h3.078v12.054h5.712v-5.375h4.62v4.339c-5.949,1.385-11.965,2.813-18.036,4.271v-9.288h3.078l-11.226-11.226l-11.226,11.226h3.078
		v12.055h4.855c-9.046,2.204-18.246,4.478-27.628,6.817c-17.75,4.426-36.135,9.076-55.378,13.903h117.658h92.411h301.824H1118
		C1112.519,234.726,1103.749,232.355,1092.35,229.63z"/>
</g>
<g>
	<path fill="#62A83D" d="M99.072,145.488c0-0.004,0-0.007,0-0.011c1.248,0,12.402,0.078,12.402-0.077c0-4.993,0-9.987,0-14.98
		c0-2.626,0-5.252,0-7.878c0-0.476,0-0.951,0-1.426c0-0.146-1.054,0.273-1.054-0.243c0-0.373-0.262-0.234-0.603-0.234
		c-2.794,0-5.589,0-8.384,0c-0.736,0-0.603,0.011-0.603,0.744c0,1.302,0,2.604,0,3.905c0,2.622,0,5.244,0,7.866
		c0,0.329-2.342,0.145-2.7,0.145c-0.541,0-1.526,0.34-1.526-0.325c0-5.399,0-10.798,0-16.197c0-1.9,0-3.8,0-5.7
		c0-0.178-5.108-0.083-5.548-0.083c-2.371,0-4.742,0-7.113,0c-0.034,0-0.016,4.269-0.016,4.538c0,5.549,0,11.099,0,16.648
		c0,0.841-0.463,0.518-1.303,0.518c-0.109,0-1.112,0.043-1.112-0.034c0-0.283,0-0.566,0-0.85c0-2.927,0-5.854,0-8.782
		c0-1.202,0-2.403,0-3.605c0-0.737-0.021-0.596-0.78-0.596c-2.549,0-5.099,0-7.647,0c-0.05,0-0.024,12.642-0.024,13.553
		c0,6.006-0.003,12.012-0.018,18.018c4.617,0,9.234,0,13.851,0c0.22,0,0.092,0.721,0.092,0.894c0,0.105,0.075,0.63,0,0.709
		c-0.045,0.047-0.635-0.041-0.635,0.006c0,0.354,0,0.708,0,1.062c0,2.131,0,4.262,0,6.393c0,8.741,0,17.483,0,26.224
		c3.229-0.137,6.458-0.255,9.688-0.353c0.302-0.009,1.494,0.209,1.494-0.191c0-0.271,0-0.541,0-0.812c0-2.543,0-5.086,0-7.629
		c0-3.154,0-6.309,0-9.464c0-1.071,0-2.143,0-3.214c0-0.379,0.202-1.048-0.241-1.048c-0.207,0-1.299,0.113-1.299-0.09
		c0-0.612,0-1.225,0-1.837c0-0.365-0.171-2.898,0.143-2.898c1.367,0,2.733,0,4.101,0c0.165,0,0.981,0.119,1.106,0
		c0.097-0.091,0-0.811,0-0.937c0-0.664,0.081-7.078-0.078-7.078c-0.635,0-1.271,0-1.905,0c-0.467,0-0.287-0.334-0.287-0.766
		C99.072,148.077,99.072,146.782,99.072,145.488z"/>
	<path fill="#62A83D" d="M155.768,139.48c0-1.257,0-2.514,0-3.771c-0.364,0-3.282-0.055-3.282,0.052c0,0.653,0,1.305,0,1.958
		c0,0.286-0.196,1.601,0,1.813C152.703,139.767,155.768,139.421,155.768,139.48z"/>
	<path fill="#62A83D" d="M146.001,135.709c-0.081-0.076-0.604,0-0.708,0c-0.649,0-1.298,0-1.948,0c-1.589,0-3.178,0-4.767,0
		c-0.143,0-2.13,0.023-2.13-0.021c0-0.958,0-1.917,0-2.876c0-2.451,0-4.902,0-7.353c-0.771,0-0.575,0.135-0.575,0.849c0,1,0,2,0,3
		c0,3.102,0,6.204,0,9.306c0,2.726,0,5.451,0,8.176c0,0.529,0,1.059,0,1.588c0,0.044,1.917,0.021,2.055,0.021
		c2.664,0,5.327,0,7.991,0c0.171,0,0.081-5.481,0.081-5.948c0-1.536,0-3.072,0-4.608
		C146.001,137.554,146.221,135.917,146.001,135.709z"/>
	<path fill="#62A83D" d="M155.426,143.98c-0.716,0-1.432,0-2.147,0c-0.189,0-0.793-0.132-0.793,0.111c0,0.463,0,0.926,0,1.389
		c0,1.497,0,2.994,0,4.491c0,0.425,0,0.85,0,1.275c0,0.143,0.569,0.063,0.687,0.063c1.4,0,2.8,0,4.2,0
		c0.318,0,0.432,0.103,0.432-0.219c0-0.593,0-1.185,0-1.778c0-1.118,0-2.236,0-3.354c-0.573,0-1.146,0-1.718,0
		c-0.563,0-0.318-0.593-0.318-1.087C155.768,144.349,155.981,143.98,155.426,143.98z"/>
	<path fill="#62A83D" d="M127.503,136.726c-1.411,0-2.822,0-4.233,0c-0.372,0-2.15-0.244-2.15,0.196c0,1.23,0,2.46,0,3.69
		c0,1.758,0,3.516,0,5.274c1.108,0,2.216,0,3.324,0c0.736,0,1.473,0,2.209,0c0.15,0,1.006,0.115,1.114,0
		c0.079-0.084,0-0.626,0-0.735c0-0.667,0-1.334,0-2.001c0-1.574,0-3.148,0-4.723C127.768,137.985,128.052,136.726,127.503,136.726z"
		/>
	<path fill="#62A83D" d="M190.564,166.397c-0.857,0-0.824,0.104-0.824-0.735c0-0.625,0-1.25,0-1.875c1.81,0,3.619,0,5.429,0
		c0.104,0,1.517,0.019,1.517-0.017c0-0.519,0-1.038,0-1.557c0-3.672,0-7.345,0-11.017c-1.565,0.024-3.131,0.038-4.696,0.067
		c0-2.439,0-4.878,0-7.317c0-0.223,0.095-0.4-0.145-0.4c-0.627,0-1.255,0-1.883,0c-0.234,0-3.405,0.004-3.405-0.004
		c0-2.342,0-4.683,0-7.024c0-1.438,0-2.877,0-4.315c0-0.451,0.26-1.316-0.281-1.316c-1.417,0-2.833,0-4.249,0
		c-0.478,0-0.956,0-1.434,0c-0.158,0-0.074,0.428-0.074,0.554c0,2.597,0,5.195,0,7.792c0,0.19-5.434,0.135-5.434,0.021
		c0-2.168,0-4.335,0-6.503c0-3.004,0-6.008,0-9.012c0-0.627,0-1.255,0-1.883c0-0.025-1.722-0.012-1.834-0.012
		c-3.003,0-6.006,0-9.009,0c-0.133,0-1.834-0.033-1.834,0.029c0,1.183,0,2.366,0,3.549s0,2.366,0,3.549
		c0,0.059,3.105,0.029,3.41,0.029c0.522,0,0.545-0.103,0.545,0.426c0,0.68,0,1.36,0,2.041c0,0.104-0.843-0.088-0.843,0.062
		c0,0.227,0,0.453,0,0.679c0,5.557,0,11.113,0,16.67c0,0.679,0,1.359,0,2.038c0,0.15,1.564,0.066,1.74,0.066
		c2.686,0,5.371,0,8.056,0c0.279,0,0.126,2.616,0.126,2.99c0,0.514,0.175,0.739-0.36,0.739c-0.191,0-1.456-0.086-1.456,0.069
		c0,1.273,0,2.546,0,3.819c0,0.367-0.209,2.524,0.173,2.524c1.311,0,2.623,0,3.934,0c0.329,0,0.173,0.441,0.173,0.719
		c0,0.807,0,1.615,0,2.422c0,0.578,0.163,0.719-0.434,0.719c-0.218,0-0.798-0.164-0.798,0.125c0,0.73,0,1.461,0,2.191
		c0,5.61,0,11.221,0,16.832c0,0.129,0.086,0.871-0.066,0.871c-0.52,0-1.04,0-1.56,0c-2.516,0-5.032,0-7.548,0
		c-5.809,0-11.618,0-17.426,0c-0.248,0-1.986-0.228-1.726,0.301c4.574,0.086,9.147,0.19,13.721,0.314
		c8.938,0.243,17.875,0.56,26.807,0.961c0-2.231,0-4.462,0-6.694c0-1.495,0-2.991,0-4.486c0-0.315,0.192-1.811-0.171-1.811
		c-0.77,0-0.691,0.047-0.691-0.701c0-0.661,0-1.322,0-1.984c0-0.055,2.996,0.015,2.996-0.029c0-1.283,0-2.566,0-3.849
		C191.011,166.466,191.144,166.397,190.564,166.397z"/>
	<path fill="#62A83D" d="M121.385,131.165c0.567,0,1.133,0,1.7,0c1.409,0,2.818,0,4.227,0c0.131,0,0.456,0.083,0.456-0.08
		c0-0.506,0-1.012,0-1.519c0-1.323,0-2.646,0-3.968c0-0.31-1.846-0.139-2.145-0.139c-1.334,0-2.668,0-4.002,0
		c-0.57,0-0.265,1.564-0.265,2.025c0,1.134,0,2.267,0,3.401C121.044,130.818,121.007,131.165,121.385,131.165z"/>
	<path fill="#62A83D" d="M489.722,200.773c0.233,0.233,1.884,0,2.211,0c0.803,0,1.606,0,2.409,0c0-0.737,0-1.474,0-2.211
		c0-0.359,0.254-2.155,0-2.409c-0.233-0.233-1.884,0-2.211,0c-0.359,0-2.155-0.254-2.409,0c-0.233,0.233,0,1.884,0,2.211
		C489.722,198.724,489.467,200.519,489.722,200.773z"/>
	<path fill="#62A83D" d="M500.894,196.153c-0.233-0.233-1.884,0-2.211,0c-0.359,0-2.155-0.254-2.409,0c-0.233,0.233,0,1.884,0,2.211
		c0,0.803,0,1.606,0,2.409c0.737,0,1.474,0,2.211,0c0.359,0,2.155,0.254,2.409,0c0.233-0.233,0-1.884,0-2.211
		C500.894,198.203,501.148,196.408,500.894,196.153z"/>
	<path fill="#62A83D" d="M476.894,202.153c-0.233-0.233-1.884,0-2.211,0c-0.359,0-2.155-0.254-2.409,0c-0.233,0.233,0,1.884,0,2.211
		c0,0.803,0,1.606,0,2.409c0.737,0,1.474,0,2.211,0c0.359,0,2.155,0.254,2.409,0c0.233-0.233,0-1.884,0-2.211
		C476.894,204.203,477.148,202.408,476.894,202.153z"/>
	<path fill="#62A83D" d="M465.722,206.773c0.233,0.233,1.884,0,2.211,0c0.359,0,2.155,0.254,2.409,0c0.233-0.233,0-1.884,0-2.211
		c0-0.803,0-1.606,0-2.409c-0.737,0-1.474,0-2.211,0c-0.359,0-2.155-0.254-2.409,0c-0.233,0.233,0,1.884,0,2.211
		C465.722,204.724,465.467,206.519,465.722,206.773z"/>
	<path fill="#62A83D" d="M114.188,176.799c-0.614,0-1.228,0-1.841,0c-1.22,0-2.439,0-3.659,0c-0.079,0-0.456-0.053-0.456,0.043
		c0,0.461,0,0.922,0,1.383c0,1.051,0,2.102,0,3.153c2.064,0,4.127,0,6.191,0c0.079,0,0.456,0.053,0.456-0.043
		c0-0.461,0-0.922,0-1.383c0-0.694,0-1.387,0-2.081c0-0.147,0.111-0.967,0-1.073C114.801,176.725,114.289,176.799,114.188,176.799z"
		/>
	<path fill="#62A83D" d="M203.553,158.887c-0.389,0-1.465-0.254-1.465,0.231c0,1.632,0,3.265,0,4.897c0.752,0,1.505,0,2.257,0
		c0.389,0,1.465,0.254,1.465-0.231c0-0.941,0-1.882,0-2.823c0-0.311,0.221-1.847,0-2.074
		C205.581,158.65,203.887,158.887,203.553,158.887z"/>
	<path fill="#62A83D" d="M471.673,210.469c-0.813,0-1.627,0-2.441,0c-0.525,0-0.361,0.182-0.361,0.699c0,1.49,0,2.98,0,4.47
		c0.469-0.114,4.62-0.924,4.62-1.171c0-0.756,0-1.512,0-2.267c0-0.242,0.178-1.563,0-1.73
		C473.283,210.273,471.953,210.469,471.673,210.469z"/>
	<path fill="#62A83D" d="M204.345,166.077c-0.684,0-1.367,0-2.051,0c-0.396,0-0.206,0.571-0.206,0.903c0,0.554,0,1.108,0,1.662
		c1.172,0,2.344,0,3.517,0c0.396,0,0.206-0.571,0.206-0.903c0-0.26,0.178-1.478,0-1.662
		C205.663,165.925,204.553,166.077,204.345,166.077z"/>
	<path fill="#62A83D" d="M362.188,194.42c-0.614,0-1.228,0-1.841,0c-1.22,0-2.439,0-3.659,0c-0.079,0-0.456-0.053-0.456,0.043
		c0,0.461,0,0.922,0,1.383c0,1.051,0,2.102,0,3.153c2.064,0,4.127,0,6.191,0c0.079,0,0.456,0.053,0.456-0.043
		c0-0.461,0-0.922,0-1.383c0-0.694,0-1.387,0-2.081c0-0.147,0.111-0.967,0-1.073C362.801,194.346,362.289,194.42,362.188,194.42z"/>
	<path fill="#62A83D" d="M356.688,200.799c-0.741,0-0.456,0.481-0.456,1.182c0,0.972,0,1.944,0,2.916
		c1.391,0.25,2.656,0.482,4.058,0.482c0.19,0,2.589,0.012,2.589-0.011c0-0.559,0.132-4.569-0.121-4.569
		C360.734,200.799,358.711,200.799,356.688,200.799z"/>
	<path fill="#62A83D" d="M282.033,185.467c0-0.79,0.281-1.167-0.525-1.167c-2.837,0-5.674,0-8.511,0c-0.619,0-1.237,0-1.855,0
		c-0.092,0-0.042,1.504-0.042,1.646c0,1.939,0,3.879,0,5.819c2.375,0,4.749,0,7.123,0c1.175,0,2.35,0,3.525,0
		c0.592,0,0.285-1.173,0.285-1.646C282.033,188.569,282.033,187.019,282.033,185.467z"/>
	<path fill="#62A83D" d="M271.1,181.367c2.375,0,4.749,0,7.123,0c1.175,0,2.35,0,3.525,0c0.587,0,0.285-1.125,0.285-1.596
		c0-1.531,0-3.061,0-4.591c0-0.407,0-0.813,0-1.219c0-0.128-0.336-0.06-0.438-0.06c-2.814,0-5.628,0-8.442,0
		c-0.67,0-1.341,0-2.011,0c-0.093,0-0.042,1.457-0.042,1.596C271.1,177.454,271.1,179.41,271.1,181.367z"/>
	<path fill="#62A83D" d="M271.1,167.9c2.375,0,4.749,0,7.123,0c1.175,0,2.35,0,3.525,0c0.496,0,0.285-0.467,0.285-0.912
		c0-1.292,0.075-14.021-0.074-14.021c-2.475,0-4.949,0-7.423,0c-1.072,0-2.145,0-3.216,0c-0.415,0-0.22,0.561-0.22,0.912
		C271.1,158.553,271.1,163.227,271.1,167.9z"/>
	<path fill="#62A83D" d="M114.188,170.42c-0.614,0-1.228,0-1.841,0c-1.22,0-2.439,0-3.659,0c-0.079,0-0.456-0.053-0.456,0.043
		c0,0.461,0,0.922,0,1.383c0,1.051,0,2.102,0,3.153c2.064,0,4.127,0,6.191,0c0.079,0,0.456,0.053,0.456-0.043
		c0-0.461,0-0.922,0-1.383c0-0.694,0-1.387,0-2.081c0-0.147,0.111-0.967,0-1.073C114.801,170.346,114.289,170.42,114.188,170.42z"/>
	<path fill="#62A83D" d="M168.115,176.039c-0.225-0.22-1.757,0-2.065,0c-0.977,0-1.953,0-2.93,0c-0.6,0-0.323,0.738-0.323,1.252
		c0,0.804,0,1.607,0,2.411c1.665,0,3.33,0,4.995,0c0.6,0,0.323-0.738,0.323-1.252C168.115,178.089,168.368,176.286,168.115,176.039z
		"/>
	<path fill="#62A83D" d="M162.797,174.6c0.225,0.22,1.757,0,2.065,0c0.977,0,1.953,0,2.93,0c0.6,0,0.323-0.738,0.323-1.252
		c0-0.804,0-1.608,0-2.412c-1.665,0-3.33,0-4.995,0c-0.6,0-0.323,0.738-0.323,1.252C162.797,172.549,162.544,174.353,162.797,174.6z
		"/>
	<path fill="#62A83D" d="M375.076,173.565c-0.614,0-1.228,0-1.841,0c-1.219,0-2.439,0-3.658,0c-0.079,0-0.456-0.053-0.456,0.043
		c0,0.461,0,0.922,0,1.383c0,1.051,0,2.102,0,3.153c2.063,0,4.127,0,6.191,0c0.079,0,0.456,0.053,0.456-0.043
		c0-0.461,0-0.922,0-1.383c0-0.694,0-1.387,0-2.081c0-0.147,0.111-0.967,0-1.073C375.69,173.492,375.177,173.565,375.076,173.565z"
		/>
	<path fill="#62A83D" d="M136.015,170.886c-0.185-0.178-0.141,0.977-0.141,1.063c0,0.546,0,1.092,0,1.639
		c0.291-0.016,0.141-0.806,0.141-1.063C136.015,172.284,136.186,171.05,136.015,170.886z"/>
	<path fill="#62A83D" d="M80.345,168.076c-0.684,0-1.367,0-2.051,0c-0.396,0-0.206,0.572-0.206,0.903c0,0.554,0,1.108,0,1.663
		c1.172,0,2.344,0,3.517,0c0.396,0,0.206-0.572,0.206-0.903c0-0.26,0.178-1.479,0-1.663
		C81.663,167.924,80.553,168.076,80.345,168.076z"/>
	<path fill="#62A83D" d="M127.076,176.799c-0.614,0-1.228,0-1.841,0c-1.219,0-2.439,0-3.658,0c-0.079,0-0.456-0.053-0.456,0.043
		c0,0.461,0,0.922,0,1.383c0,1.051,0,2.102,0,3.153c2.063,0,4.127,0,6.191,0c0.079,0,0.456,0.053,0.456-0.043
		c0-0.461,0-0.922,0-1.383c0-0.694,0-1.387,0-2.081c0-0.147,0.111-0.967,0-1.073C127.69,176.725,127.177,176.799,127.076,176.799z"
		/>
	<path fill="#62A83D" d="M127.076,170.42c-0.614,0-1.228,0-1.841,0c-1.219,0-2.439,0-3.658,0c-0.079,0-0.456-0.053-0.456,0.043
		c0,0.461,0,0.922,0,1.383c0,1.051,0,2.102,0,3.153c2.063,0,4.127,0,6.191,0c0.079,0,0.456,0.053,0.456-0.043
		c0-0.461,0-0.922,0-1.383c0-0.694,0-1.387,0-2.081c0-0.147,0.111-0.967,0-1.073C127.69,170.346,127.177,170.42,127.076,170.42z"/>
	<path fill="#62A83D" d="M81.81,183.327c-0.147-0.152-1.257,0-1.465,0c-0.684,0-1.367,0-2.051,0c-0.396,0-0.206,0.571-0.206,0.903
		c0,0.554,0,1.108,0,1.662c1.172,0,2.344,0,3.517,0c0.396,0,0.206-0.571,0.206-0.903C81.81,184.729,81.988,183.511,81.81,183.327z"
		/>
	<path fill="#62A83D" d="M73.127,179.755c-0.684,0-1.367,0-2.051,0c-0.396,0-0.206,0.572-0.206,0.903c0,0.554,0,1.108,0,1.663
		c1.172,0,2.344,0,3.517,0c0.396,0,0.206-0.572,0.206-0.903c0-0.26,0.178-1.479,0-1.663
		C74.445,179.603,73.335,179.755,73.127,179.755z"/>
	<path fill="#62A83D" d="M74.592,183.327c-0.147-0.152-1.257,0-1.465,0c-0.684,0-1.367,0-2.051,0c-0.396,0-0.206,0.571-0.206,0.903
		c0,0.554,0,1.108,0,1.662c1.172,0,2.344,0,3.517,0c0.396,0,0.206-0.571,0.206-0.903C74.592,184.729,74.77,183.511,74.592,183.327z"
		/>
	<path fill="#62A83D" d="M375.503,160.726c-1.411,0-2.822,0-4.233,0c-0.372,0-2.15-0.244-2.15,0.196c0,1.23,0,2.46,0,3.69
		c0,1.758,0,3.516,0,5.274c1.108,0,2.216,0,3.324,0c0.736,0,1.473,0,2.209,0c0.15,0,1.006,0.115,1.114,0
		c0.079-0.084,0-0.626,0-0.735c0-0.667,0-1.334,0-2.001c0-1.574,0-3.148,0-4.723C375.768,161.985,376.052,160.726,375.503,160.726z"
		/>
	<path fill="#62A83D" d="M204.345,169.648c-0.684,0-1.367,0-2.051,0c-0.396,0-0.206,0.572-0.206,0.903c0,0.554,0,1.108,0,1.663
		c1.172,0,2.344,0,3.517,0c0.396,0,0.206-0.572,0.206-0.903c0-0.26,0.178-1.479,0-1.663
		C205.663,169.496,204.553,169.648,204.345,169.648z"/>
	<path fill="#62A83D" d="M375.076,194.42c-0.614,0-1.228,0-1.841,0c-1.219,0-2.439,0-3.658,0c-0.079,0-0.456-0.053-0.456,0.043
		c0,0.461,0,0.922,0,1.383c0,1.051,0,2.102,0,3.153c2.063,0,4.127,0,6.191,0c0.079,0,0.456,0.053,0.456-0.043
		c0-0.461,0-0.922,0-1.383c0-0.694,0-1.387,0-2.081c0-0.147,0.111-0.967,0-1.073C375.69,194.346,375.177,194.42,375.076,194.42z"/>
	<path fill="#62A83D" d="M375.076,179.944c-0.614,0-1.228,0-1.841,0c-1.219,0-2.439,0-3.658,0c-0.079,0-0.456-0.053-0.456,0.043
		c0,0.461,0,0.922,0,1.383c0,1.051,0,2.103,0,3.154c2.063,0,4.127,0,6.191,0c0.079,0,0.456,0.053,0.456-0.043
		c0-0.461,0-0.922,0-1.383c0-0.694,0-1.387,0-2.081c0-0.147,0.111-0.967,0-1.073C375.69,179.871,375.177,179.944,375.076,179.944z"
		/>
	<path fill="#62A83D" d="M127.076,155.944c-0.614,0-1.228,0-1.841,0c-1.219,0-2.439,0-3.658,0c-0.079,0-0.456-0.053-0.456,0.043
		c0,0.461,0,0.922,0,1.383c0,1.051,0,2.102,0,3.153c2.063,0,4.127,0,6.191,0c0.079,0,0.456,0.053,0.456-0.043
		c0-0.461,0-0.922,0-1.383c0-0.694,0-1.387,0-2.081c0-0.147,0.111-0.967,0-1.073C127.69,155.871,127.177,155.944,127.076,155.944z"
		/>
	<path fill="#62A83D" d="M205.81,155.611c0-1.515,0-3.029,0-4.544c-0.323,0.003-3.723,0.034-3.723,0.062c0,0.418,0,0.836,0,1.255
		c0,1.129,0,2.258,0,3.388c0.752,0,1.505,0,2.257,0C204.637,155.772,205.81,155.966,205.81,155.611z"/>
	<path fill="#62A83D" d="M197.127,177.755c-0.684,0-1.367,0-2.051,0c-0.396,0-0.206,0.571-0.206,0.903c0,0.554,0,1.108,0,1.662
		c1.172,0,2.344,0,3.517,0c0.396,0,0.206-0.571,0.206-0.903c0-0.26,0.178-1.478,0-1.662
		C198.445,177.603,197.335,177.755,197.127,177.755z"/>
	<path fill="#62A83D" d="M375.076,200.799c-0.614,0-1.228,0-1.841,0c-1.219,0-2.439,0-3.658,0c-0.079,0-0.456-0.053-0.456,0.043
		c0,0.461,0,0.922,0,1.383c0,1.051,0,2.103,0,3.154c2.063,0,4.127,0,6.191,0c0.079,0,0.456,0.053,0.456-0.043
		c0-0.461,0-0.922,0-1.383c0-0.694,0-1.387,0-2.081c0-0.147,0.111-0.967,0-1.073C375.69,200.725,375.177,200.799,375.076,200.799z"
		/>
	<path fill="#62A83D" d="M80.345,179.755c-0.684,0-1.367,0-2.051,0c-0.396,0-0.206,0.572-0.206,0.903c0,0.554,0,1.108,0,1.663
		c1.172,0,2.344,0,3.517,0c0.396,0,0.206-0.572,0.206-0.903c0-0.26,0.178-1.479,0-1.663
		C81.663,179.603,80.553,179.755,80.345,179.755z"/>
	<path fill="#62A83D" d="M198.592,181.327c-0.147-0.152-1.257,0-1.465,0c-0.684,0-1.367,0-2.051,0c-0.396,0-0.206,0.571-0.206,0.903
		c0,0.554,0,1.108,0,1.662c1.172,0,2.344,0,3.517,0c0.396,0,0.206-0.571,0.206-0.903
		C198.592,182.729,198.77,181.511,198.592,181.327z"/>
	<path fill="#62A83D" d="M204.345,177.755c-0.684,0-1.367,0-2.051,0c-0.396,0-0.206,0.571-0.206,0.903c0,0.554,0,1.108,0,1.662
		c1.172,0,2.344,0,3.517,0c0.396,0,0.206-0.571,0.206-0.903c0-0.26,0.178-1.478,0-1.662
		C205.663,177.603,204.553,177.755,204.345,177.755z"/>
	<path fill="#62A83D" d="M205.81,181.327c-0.147-0.152-1.257,0-1.465,0c-0.684,0-1.367,0-2.051,0c-0.396,0-0.206,0.571-0.206,0.903
		c0,0.554,0,1.108,0,1.662c1.172,0,2.344,0,3.517,0c0.396,0,0.206-0.571,0.206-0.903C205.81,182.729,205.988,181.511,205.81,181.327
		z"/>
	<path fill="#62A83D" d="M80.345,171.648c-0.684,0-1.367,0-2.051,0c-0.396,0-0.206,0.572-0.206,0.903c0,0.554,0,1.108,0,1.663
		c1.172,0,2.344,0,3.517,0c0.396,0,0.206-0.572,0.206-0.903c0-0.26,0.178-1.479,0-1.663
		C81.663,171.496,80.553,171.648,80.345,171.648z"/>
	<path fill="#62A83D" d="M127.076,149.565c-0.614,0-1.228,0-1.841,0c-1.219,0-2.439,0-3.658,0c-0.079,0-0.456-0.053-0.456,0.043
		c0,0.461,0,0.922,0,1.383c0,1.051,0,2.103,0,3.154c2.063,0,4.127,0,6.191,0c0.079,0,0.456,0.053,0.456-0.043
		c0-0.461,0-0.922,0-1.383c0-0.694,0-1.387,0-2.081c0-0.147,0.111-0.967,0-1.073C127.69,149.492,127.177,149.565,127.076,149.565z"
		/>
	<path fill="#62A83D" d="M79.553,160.887c-0.389,0-1.465-0.254-1.465,0.231c0,1.632,0,3.265,0,4.897c0.752,0,1.505,0,2.257,0
		c0.389,0,1.465,0.254,1.465-0.231c0-0.941,0-1.882,0-2.823c0-0.311,0.221-1.847,0-2.074
		C81.581,160.65,79.887,160.887,79.553,160.887z"/>
	<path fill="#62A83D" d="M79.553,152.643c-0.389,0-1.465-0.254-1.465,0.231c0,1.633,0,3.266,0,4.898c0.752,0,1.505,0,2.257,0
		c0.389,0,1.465,0.254,1.465-0.231c0-0.941,0-1.883,0-2.824c0-0.311,0.221-1.847,0-2.074
		C81.581,152.406,79.887,152.643,79.553,152.643z"/>
	<path fill="#62A83D" d="M1080.592,222.755c-0.147-0.152-1.257,0-1.465,0c-0.684,0-1.368,0-2.052,0
		c-0.396,0-0.206,0.572-0.206,0.903c0,0.554,0,1.108,0,1.663c1.172,0,2.344,0,3.517,0c0.396,0,0.206-0.572,0.206-0.903
		C1080.592,224.158,1080.77,222.939,1080.592,222.755z"/>
	<path fill="#62A83D" d="M1079.866,226.327c-0.616,0-1.232,0-1.849,0c0.858,0.191,1.717,0.384,2.574,0.577
		C1080.592,226.199,1080.553,226.327,1079.866,226.327z"/>
	<path fill="#62A83D" d="M1086.538,226.327c-0.777,0-1.554,0-2.331,0c-0.262,0-0.119,1.11-0.119,1.371
		c1.241,0.284,2.481,0.571,3.722,0.86c0-0.683,0-1.365,0-2.047C1087.81,226.128,1086.85,226.327,1086.538,226.327z"/>
	<path fill="#62A83D" d="M1012.076,201.42c-0.613,0-1.228,0-1.842,0c-1.219,0-2.438,0-3.658,0c-0.078,0-0.456-0.053-0.456,0.043
		c0,0.461,0,0.922,0,1.383c0,1.051,0,2.102,0,3.153c2.063,0,4.128,0,6.191,0c0.078,0,0.456,0.053,0.456-0.043
		c0-0.461,0-0.922,0-1.383c0-0.694,0-1.387,0-2.081c0-0.147,0.111-0.967,0-1.073C1012.69,201.346,1012.177,201.42,1012.076,201.42z"
		/>
	<path fill="#62A83D" d="M1012.503,167.726c-1.41,0-2.821,0-4.232,0c-0.372,0-2.15-0.244-2.15,0.196c0,1.23,0,2.459,0,3.689
		c0,1.758,0,3.516,0,5.274c1.108,0,2.216,0,3.323,0c0.737,0,1.474,0,2.21,0c0.149,0,1.007,0.115,1.114,0
		c0.079-0.084,0-0.626,0-0.735c0-0.667,0-1.334,0-2.001c0-1.574,0-3.148,0-4.722
		C1012.768,168.984,1013.053,167.726,1012.503,167.726z"/>
	<path fill="#62A83D" d="M1012.076,186.944c-0.613,0-1.228,0-1.842,0c-1.219,0-2.438,0-3.658,0c-0.078,0-0.456-0.053-0.456,0.043
		c0,0.461,0,0.922,0,1.383c0,1.051,0,2.103,0,3.154c2.063,0,4.128,0,6.191,0c0.079,0,0.456,0.053,0.456-0.043
		c0-0.461,0-0.922,0-1.383c0-0.694,0-1.387,0-2.081c0-0.147,0.111-0.967,0-1.073C1012.69,186.871,1012.177,186.944,1012.076,186.944
		z"/>
	<path fill="#62A83D" d="M1012.076,180.565c-0.613,0-1.228,0-1.842,0c-1.219,0-2.438,0-3.658,0c-0.078,0-0.456-0.053-0.456,0.043
		c0,0.461,0,0.922,0,1.383c0,1.051,0,2.102,0,3.153c2.063,0,4.128,0,6.191,0c0.078,0,0.456,0.053,0.456-0.043
		c0-0.461,0-0.922,0-1.383c0-0.694,0-1.387,0-2.081c0-0.147,0.111-0.967,0-1.073C1012.69,180.492,1012.177,180.565,1012.076,180.565
		z"/>
	<path fill="#62A83D" d="M1087.81,222.755c-0.147-0.152-1.257,0-1.465,0c-0.684,0-1.367,0-2.051,0c-0.396,0-0.206,0.572-0.206,0.903
		c0,0.554,0,1.108,0,1.663c1.172,0,2.344,0,3.516,0c0.396,0,0.206-0.572,0.206-0.903
		C1087.81,224.158,1087.987,222.939,1087.81,222.755z"/>
	<path fill="#62A83D" d="M923.91,165.141c0.062,0,0.03-1.746,0.03-1.964c-1.673,0.221-3.345,0.444-5.017,0.67
		c-0.294,0.04-1.544,0.049-1.544,0.346c0,0.316,0,0.632,0,0.948c1.541,0,3.081,0,4.622,0
		C922.638,165.141,923.273,165.141,923.91,165.141z"/>
	<path fill="#62A83D" d="M1085.553,195.643c-0.389,0-1.465-0.254-1.465,0.231c0,1.633,0,3.266,0,4.898c0.752,0,1.505,0,2.257,0
		c0.39,0,1.465,0.254,1.465-0.231c0-0.941,0-1.883,0-2.824c0-0.311,0.221-1.847,0-2.074
		C1087.58,195.406,1085.887,195.643,1085.553,195.643z"/>
	<path fill="#62A83D" d="M921.44,189.38c-1.203,0-2.407,0-3.61,0c-0.08,0-0.45-0.054-0.45,0.045c0,0.473,0,0.946,0,1.419
		c0,1.005,0,2.011,0,3.016c2.037,0,4.073,0,6.11,0c0.08,0,0.45,0.054,0.45-0.045c0-0.473,0-0.946,0-1.419c0-0.637,0-1.275,0-1.913
		c0-0.17,0.12-0.972,0-1.104C923.709,189.126,921.779,189.38,921.44,189.38z"/>
	<path fill="#62A83D" d="M923.591,170.58c-1.424,0-2.849,0-4.272,0c-0.456,0-1.938-0.307-1.938,0.265c0,1.273,0,2.547,0,3.82
		c0,1.625,0,3.25,0,4.875c1.094,0,2.187,0,3.28,0c0.727,0,1.453,0,2.181,0c0.149,0,0.991,0.114,1.1,0c0.079-0.083,0-0.631,0-0.739
		c0-0.668,0-1.336,0-2.004c0-1.555,0-3.111,0-4.666C923.94,171.571,924.259,170.58,923.591,170.58z"/>
	<path fill="#62A83D" d="M1086.345,211.076c-0.684,0-1.367,0-2.051,0c-0.396,0-0.206,0.572-0.206,0.903c0,0.554,0,1.108,0,1.663
		c1.172,0,2.344,0,3.516,0c0.396,0,0.206-0.572,0.206-0.903c0-0.26,0.178-1.479,0-1.663
		C1087.662,210.924,1086.553,211.076,1086.345,211.076z"/>
	<path fill="#62A83D" d="M1085.553,203.887c-0.389,0-1.465-0.254-1.465,0.231c0,1.632,0,3.265,0,4.897c0.752,0,1.505,0,2.257,0
		c0.39,0,1.465,0.254,1.465-0.231c0-0.941,0-1.882,0-2.823c0-0.311,0.221-1.847,0-2.074
		C1087.58,203.65,1085.887,203.887,1085.553,203.887z"/>
	<path fill="#62A83D" d="M1086.345,214.648c-0.684,0-1.367,0-2.051,0c-0.396,0-0.206,0.572-0.206,0.903c0,0.554,0,1.108,0,1.663
		c1.172,0,2.344,0,3.516,0c0.396,0,0.206-0.572,0.206-0.903c0-0.26,0.178-1.479,0-1.663
		C1087.662,214.496,1086.553,214.648,1086.345,214.648z"/>
	<path fill="#62A83D" d="M964.553,191.887c-0.389,0-1.465-0.254-1.465,0.231c0,1.632,0,3.265,0,4.897c0.752,0,1.505,0,2.257,0
		c0.39,0,1.465,0.254,1.465-0.231c0-0.941,0-1.882,0-2.823c0-0.311,0.221-1.847,0-2.074
		C966.58,191.65,964.887,191.887,964.553,191.887z"/>
	<path fill="#62A83D" d="M966.81,199.077c-0.147-0.152-1.257,0-1.465,0c-0.684,0-1.367,0-2.051,0c-0.396,0-0.206,0.571-0.206,0.903
		c0,0.554,0,1.108,0,1.662c1.172,0,2.344,0,3.516,0c0.396,0,0.206-0.571,0.206-0.903C966.81,200.479,966.987,199.261,966.81,199.077
		z"/>
	<path fill="#62A83D" d="M997.539,207.799c-1.284,0-2.567,0-3.852,0c-0.31,0-0.456-0.109-0.456,0.217c0,0.54,0,1.08,0,1.62
		c2.217,0.392,4.433,0.787,6.647,1.184c0-0.985,0-1.971,0-2.957C999.879,207.724,997.755,207.799,997.539,207.799z"/>
	<path fill="#62A83D" d="M964.553,183.643c-0.39,0-1.465-0.254-1.465,0.231c0,1.633,0,3.266,0,4.898c0.752,0,1.505,0,2.257,0
		c0.39,0,1.465,0.254,1.465-0.231c0-0.941,0-1.883,0-2.824c0-0.311,0.221-1.847,0-2.074
		C966.58,183.406,964.887,183.643,964.553,183.643z"/>
	<path fill="#62A83D" d="M1012.698,207.799c-2.04,0-4.081,0-6.122,0c-0.083,0-0.456-0.056-0.456,0.046c0,0.422,0,0.844,0,1.267
		c0,0.945,0,1.891,0,2.836c1.252,0.228,2.384,0.43,3.646,0.43c0.997,0,1.993,0,2.99,0
		C1012.727,212.378,1012.873,207.799,1012.698,207.799z"/>
	<path fill="#62A83D" d="M965.538,202.648c-0.799,0-1.598,0-2.396,0c-0.115,0-0.055,1.608-0.055,1.84
		c1.24,0.205,2.481,0.41,3.722,0.616c0-0.725,0-1.45,0-2.175C966.81,202.393,965.986,202.648,965.538,202.648z"/>
	<path fill="#62A83D" d="M1041.818,170.204c-0.756,0-1.512,0-2.267,0c-0.612,0-1.225,0-1.837,0c-0.297,0-0.229,0.03-0.229,0.326
		c0,2.334,0,4.668,0,7.002c1.084,0,2.168,0,3.252,0c0.612,0,1.225,0,1.837,0c0.297,0,0.229-0.03,0.229-0.326
		c0-1.345,0-2.689,0-4.034c0-0.691,0-1.383,0-2.074c0-0.13,0.096-0.795,0-0.895C1042.705,170.102,1041.954,170.204,1041.818,170.204
		z"/>
	<path fill="#62A83D" d="M999.188,201.42c-0.613,0-1.228,0-1.842,0c-1.219,0-2.438,0-3.658,0c-0.078,0-0.456-0.053-0.456,0.043
		c0,0.461,0,0.922,0,1.383c0,1.051,0,2.102,0,3.153c2.063,0,4.128,0,6.191,0c0.078,0,0.456,0.053,0.456-0.043
		c0-0.461,0-0.922,0-1.383c0-0.694,0-1.387,0-2.081c0-0.147,0.111-0.967,0-1.073C999.802,201.346,999.288,201.42,999.188,201.42z"/>
	<path fill="#62A83D" d="M1051.05,208.936c-0.977,0-1.953,0-2.93,0c-0.601,0-0.323,0.738-0.323,1.252c0,0.804,0,1.608,0,2.412
		c1.665,0,3.33,0,4.995,0c0.601,0,0.323-0.738,0.323-1.252c0-0.362,0.253-2.165,0-2.412
		C1052.89,208.716,1051.357,208.936,1051.05,208.936z"/>
	<path fill="#62A83D" d="M1053.115,214.039c-0.225-0.22-1.758,0-2.065,0c-0.977,0-1.953,0-2.93,0c-0.6,0-0.323,0.737-0.323,1.252
		c0,0.804,0,1.607,0,2.411c1.665,0,3.33,0,4.995,0c0.6,0,0.323-0.737,0.323-1.252
		C1053.115,216.089,1053.368,214.286,1053.115,214.039z"/>
	<path fill="#62A83D" d="M1021.016,201.886c-0.186-0.179-0.142,0.978-0.142,1.063c0,0.546,0,1.092,0,1.639
		c0.291-0.016,0.142-0.806,0.142-1.063C1021.016,203.283,1021.187,202.051,1021.016,201.886z"/>
	<path fill="#62A83D" d="M1042.804,182.875c0-0.13,0.096-0.795,0-0.895c-0.099-0.102-0.85,0-0.985,0c-0.756,0-1.512,0-2.267,0
		c-0.612,0-1.225,0-1.837,0c-0.297,0-0.229,0.03-0.229,0.326c0,2.334,0,4.668,0,7.002c1.084,0,2.168,0,3.252,0
		c0.612,0,1.225,0,1.837,0c0.297,0,0.229-0.03,0.229-0.326c0-1.345,0-2.689,0-4.034
		C1042.804,184.257,1042.804,183.566,1042.804,182.875z"/>
	<path fill="#62A83D" d="M921.44,183.14c-1.203,0-2.407,0-3.61,0c-0.08,0-0.45-0.054-0.45,0.045c0,0.473,0,0.946,0,1.419
		c0,1.005,0,2.011,0,3.016c2.037,0,4.073,0,6.11,0c0.08,0,0.45,0.054,0.45-0.045c0-0.473,0-0.946,0-1.419c0-0.637,0-1.275,0-1.913
		c0-0.17,0.12-0.972,0-1.104C923.709,182.886,921.779,183.14,921.44,183.14z"/>
	<path fill="#62A83D" d="M1012.503,153.005c-1.41,0-2.821,0-4.232,0c-0.372,0-2.15-0.244-2.15,0.196c0,1.23,0,2.46,0,3.69
		c0,1.758,0,3.516,0,5.274c1.108,0,2.216,0,3.323,0c0.737,0,1.474,0,2.21,0c0.149,0,1.007,0.115,1.114,0
		c0.079-0.084,0-0.626,0-0.735c0-0.667,0-1.334,0-2.001c0-1.574,0-3.148,0-4.723
		C1012.768,154.264,1013.053,153.005,1012.503,153.005z"/>
	<path fill="#62A83D" d="M65.74,165.787c0.66,0,6.945,0.007,6.945-0.007c0-2.475,0-4.949,0-7.423
		c-3.346,0.339-6.69,0.686-10.033,1.049c-0.015-0.96-0.144-1.918-0.104-2.879c0.023-0.544,0.11-1.078,0.352-1.571
		c0.168-0.343,1.08-0.333,0.729-0.976c0.394-0.052,0.738-0.286,1.02-0.552c0.393-0.37,0.758,0.148,1.334,0.031
		c0.867-0.177,1.331-1.159,0.912-1.94c0.199,0.005,0.396-0.012,0.591-0.049c0.424-0.086,0.319,0.076,0.709,0.19
		c0.413,0.121,0.869-0.06,1.087-0.43c0.188-0.318,0.171-0.725-0.042-1.027c0.177-0.514-0.062-1.077-0.554-1.307
		c0.582-0.699,0.188-1.722-0.637-1.963c-0.146-0.782-1.327-1.015-1.982-1.188c1.21-0.674,0.649-2.622-0.434-3.123
		c-0.283-0.131-0.601-0.154-0.9-0.062c-0.049-0.065-0.097-0.13-0.146-0.195c-0.209-0.018-0.416-0.051-0.625-0.067
		c-0.334-0.027-0.749-0.042-1.022,0.19c-0.284,0.241-0.084,0.293-0.487,0.405c-0.205,0.057-0.385,0.17-0.51,0.344
		c-1.272-1.7-3.732,0.668-2.072,1.994c-0.229,0.103-0.389,0.292-0.491,0.517c-1.087-0.879-2.671,0.351-2.053,1.616
		c-0.285,0.3-0.416,0.757-0.413,1.164c0.002,0.395,0.66,1.021,0.639,1.076c-0.772-0.484-1.717,0.415-1.251,1.206
		c0.193,0.328,0.584,0.502,0.957,0.424c0.063,0.438,0.337,0.627,0.727,0.77c-0.361,0.536,0.201,1.24,0.811,0.983
		c0.247-0.104,0.412-0.349,0.412-0.617c0,0.06,0.694-0.214,0.783-0.302c0.322,0.322,0.346,1.004,0.717,1.381
		c-0.506,0.247-0.493,0.994,0.031,1.214c0.423,0.178,0.375-0.165,0.644,0.24c0.223,0.336,0.655,0.461,1.026,0.298
		c-0.295,0.916-0.306,1.912-0.292,2.865c0.006,0.381,0.022,0.761,0.031,1.142c0.011,0.482-0.763,0.338-1.166,0.382
		c-2.338,0.257-4.676,0.519-7.013,0.786c-4.778,0.546-9.554,1.117-14.326,1.717c-0.034-1.529-0.172-3.055-0.193-4.584
		c-0.014-1.092,0.057-2.215,0.531-3.216c0.084-0.176,0.175-0.35,0.272-0.52c0.25,0.076,0.495,0.048,0.71-0.108
		c0.328-0.239,0.417-0.672,0.229-1.023c0.696-0.092,1.295-0.534,1.775-1.02c0.361-0.365,0.301-0.132,0.71,0.049
		c0.352,0.155,0.742,0.211,1.124,0.164c1.476-0.184,2.327-1.825,1.625-3.138c0.355,0.004,0.713-0.019,1.06-0.103
		c0.5-0.122,0.484,0.142,0.943,0.305c0.678,0.241,1.456-0.043,1.822-0.662c0.439-0.742-0.124-1.24,0.006-1.919
		c0.143-0.747-0.28-1.506-0.96-1.823c0.932-1.119,0.302-2.76-1.021-3.146c-0.107-0.573-0.529-1.056-1.083-1.237
		c-0.348-0.114-0.552-0.062-0.874-0.234c-0.382-0.204-0.804-0.323-1.221-0.433c1.939-1.08,1.042-4.203-0.694-5.005
		c-0.454-0.21-0.964-0.247-1.442-0.1c-0.199-0.048-0.145-0.301-0.421-0.331c-0.287-0.032-0.573-0.072-0.861-0.093
		c-0.535-0.041-1.198-0.054-1.623,0.334c-0.318,0.291-0.161,0.495-0.616,0.59c-0.379,0.08-0.723,0.265-0.952,0.584
		c-2.032-2.715-5.997,1.062-3.32,3.196c-0.367,0.165-0.624,0.468-0.788,0.829c-1.606-1.304-4.058,0.3-3.408,2.298
		c0.149,0.459-0.238,0.728-0.389,1.2c-0.111,0.349-0.172,0.72-0.15,1.086c0.021,0.341,0.119,0.687,0.343,0.952
		c0.235,0.279,0.805,0.319,0.677,0.643c-1.237-0.779-2.751,0.666-2.006,1.933c0.311,0.527,0.936,0.801,1.534,0.68
		c0.101,0.699,0.54,1.005,1.164,1.234c-1.062,1.575,2.041,2.402,1.947,0.53c0.463,0.021,0.93-0.091,1.268-0.428
		c0.218,0.218,0.296,0.863,0.439,1.165c0.181,0.383,0.412,0.747,0.71,1.05c-0.887,0.434-0.744,1.776,0.223,2.001
		c0.228,0.053,0.465,0.029,0.679-0.063c0.067,0.237,0.196,0.456,0.375,0.626c0.386,0.368,0.963,0.459,1.449,0.244
		c-0.66,2.051-0.467,4.298-0.419,6.418c0.007,0.298,0.014,0.597,0.021,0.896c0.011,0.479-0.335,0.327-0.776,0.383
		c-1.302,0.166-2.604,0.334-3.906,0.504c-5.308,0.694-10.61,1.424-15.909,2.178c-0.034-1.104-0.021-2.279,0.405-3.316
		c0.075-0.18,0.158-0.356,0.249-0.528c0.225-0.428,0.233-0.123,0.629-0.253c0.475-0.157,0.685-0.704,0.452-1.138
		c0.696-0.092,1.295-0.534,1.775-1.02c0.361-0.365,0.301-0.132,0.71,0.049c0.352,0.155,0.742,0.211,1.124,0.164
		c1.476-0.184,2.327-1.825,1.625-3.138c0.355,0.004,0.713-0.019,1.06-0.103c0.5-0.122,0.484,0.142,0.943,0.305
		c0.678,0.241,1.456-0.043,1.822-0.662c0.439-0.742-0.124-1.24,0.006-1.919c0.143-0.747-0.28-1.506-0.96-1.823
		c0.932-1.119,0.302-2.76-1.021-3.146c-0.107-0.573-0.529-1.056-1.083-1.237c-0.348-0.114-0.552-0.062-0.874-0.234
		c-0.382-0.204-0.804-0.323-1.221-0.433c1.939-1.08,1.042-4.203-0.694-5.005c-0.454-0.21-0.964-0.247-1.442-0.1
		c-0.199-0.048-0.145-0.301-0.421-0.331c-0.287-0.032-0.573-0.072-0.861-0.093c-0.535-0.041-1.198-0.054-1.623,0.334
		c-0.318,0.291-0.161,0.495-0.616,0.59c-0.379,0.08-0.723,0.265-0.952,0.584c-2.032-2.715-5.997,1.062-3.32,3.196
		c-0.367,0.165-0.624,0.468-0.788,0.829c-1.606-1.304-4.058,0.3-3.408,2.298c0.149,0.459-0.238,0.728-0.389,1.2
		c-0.111,0.349-0.172,0.72-0.15,1.086c0.021,0.341,0.119,0.687,0.343,0.952c0.235,0.279,0.805,0.319,0.677,0.643
		c-1.237-0.779-2.751,0.666-2.006,1.933c0.311,0.527,0.936,0.801,1.534,0.68c0.101,0.699,0.54,1.005,1.164,1.234
		c-1.062,1.575,2.041,2.402,1.947,0.53c0.463,0.021,0.93-0.091,1.268-0.428c0.218,0.218,0.296,0.863,0.439,1.165
		c0.181,0.383,0.412,0.747,0.71,1.05c-0.887,0.434-0.744,1.776,0.223,2.001c0.228,0.053,0.465,0.029,0.679-0.063
		c0.067,0.237,0.196,0.456,0.375,0.626c0.386,0.368,0.963,0.459,1.449,0.244c-0.206,0.639-0.314,1.298-0.38,1.965
		c-0.034,0.35-0.056,0.702-0.069,1.054c-0.021,0.559-0.302,0.399-0.796,0.47c-1.697,0.243-3.395,0.488-5.091,0.737
		c-3.25,0.476-6.499,0.962-9.745,1.464C1.664,167.428,0,167.526,0,167.777c0,0.203,0,0.406,0,0.608c0,0.848,0,1.695,0,2.543
		c0,6.094,0,12.187,0,18.281c0,2.378,0,4.757,0,7.135c10.441-3.011,21.246-4.767,32.002-6.197
		c6.155-0.817,12.328-1.494,18.509-2.073c3.149-0.295,6.301-0.564,9.454-0.81c1.511-0.118,3.022-0.231,4.535-0.339
		c0.529-0.038,0.377-0.157,0.377-0.64c0-2.724,0-5.447,0-8.171c0-0.829,0-1.657,0-2.486c0-0.181-0.862,0.12-0.862-0.11
		c0-0.644,0-1.289,0-1.933c0-0.372-0.165-0.701,0.24-0.701c0.697,0,1.395,0,2.092,0c0.402,0,0.664,0.16,0.664-0.263
		c0-0.661,0-1.321,0-1.981c0-0.625,0-1.25,0-1.874c0-0.568-0.266-0.37-0.824-0.37c-0.664,0-0.447-0.285-0.447-0.919
		C65.74,166.915,65.74,166.351,65.74,165.787z"/>
	<path fill="#62A83D" d="M503.624,166.168c-25-2.611-50.034-4.9-75.094-6.857c-14.876-1.162-29.762-2.207-44.655-3.132
		c0,8.803,0,17.605,0,26.408c0,9.19,0,18.381,0,27.571c0,0.012,0,0.023,0,0.035c12.383,2.511,24.729,5.196,37.051,7.988
		c5.714,1.295,11.422,2.612,17.129,3.939c0.667,0.155,1.333,0.31,2,0.466c0.696,0.162,1.567-0.23,2.257-0.403
		c1.661-0.414,3.321-0.826,4.982-1.239c3.162-0.785,6.325-1.567,9.488-2.346c3.743-0.922,7.487-1.84,11.232-2.752
		c-0.461,0-4.855,0.004-4.855-0.004c0-1.58,0-3.16,0-4.74c0-2.181,0-4.361,0-6.542c0-0.499,0.183-0.768-0.345-0.768
		c-0.911,0-1.822,0-2.733,0c3.465-3.465,6.93-6.929,10.395-10.394c0.115-0.115,0.759-0.904,0.888-0.775
		c0.566,0.566,1.132,1.132,1.697,1.697c2.188,2.187,4.375,4.374,6.562,6.562c0.97,0.97,1.94,1.94,2.911,2.91
		c-1.021,0-2.042,0-3.062,0c-0.033,0-0.016,2.199-0.016,2.349c0,2.313,0,4.626,0,6.939c3.212-0.771,6.425-1.538,9.639-2.299
		c1.53-0.362,3.06-0.723,4.591-1.082c0.458-0.107,3.806-0.686,3.806-0.991c0-1.323,0-2.646,0-3.969c0-0.38-0.103-0.269-0.48-0.269
		c-0.774,0-1.547,0-2.321,0c-0.574,0-1.148,0-1.722,0c-0.209,0-0.096,0.635-0.096,0.803c0,1.42,0,2.84,0,4.26
		c0,0.339,0.036,0.312-0.303,0.312c-0.686,0-1.372,0-2.057,0c-0.227,0-3.352,0.004-3.352-0.004c0-2.814,0-5.629,0-8.443
		c0-1.167,0-2.334,0-3.501c0-0.227-2.675-0.105-3.078-0.105c3.465-3.465,6.93-6.929,10.395-10.394
		c0.115-0.115,0.759-0.904,0.888-0.775c0.566,0.566,1.132,1.132,1.697,1.697c2.188,2.187,4.375,4.374,6.562,6.562
		c0.97,0.97,1.94,1.94,2.911,2.91c-0.513,0-1.026,0-1.539,0c-0.231,0-1.373-0.164-1.539,0c-0.073,0.071,0,0.6,0,0.696
		c0,0.582,0,1.164,0,1.746c0,2.4,0,4.8,0,7.2c25.068-5.766,50.246-11.092,75.594-15.487c19.95-3.459,40.003-6.334,60.143-8.433
		c-21.679-3.286-43.395-6.329-65.142-9.13C550.609,171.363,527.131,168.623,503.624,166.168z"/>
	<path fill="#62A83D" d="M255.233,163.439c0-3.129,0-6.259,0-9.388c0-0.882,0-1.765,0-2.647c0-0.401-1.617-0.179-1.966-0.184
		c-1.706-0.022-3.412-0.043-5.118-0.062c-1.688-0.019-19.376-0.052-19.38-0.2c-0.003-0.167-0.007-0.333-0.011-0.499
		c-0.058-1.69-0.319-3.412-0.069-5.097c0.107-0.717,0.352-1.362,0.707-1.992c0.675,0.206,1.276-0.504,0.939-1.132
		c0.696-0.092,1.295-0.534,1.775-1.02c0.361-0.365,0.301-0.132,0.71,0.049c0.352,0.155,0.742,0.211,1.124,0.164
		c1.476-0.184,2.327-1.825,1.625-3.138c0.355,0.004,0.713-0.019,1.06-0.103c0.5-0.122,0.484,0.142,0.943,0.305
		c0.678,0.241,1.456-0.043,1.822-0.662c0.439-0.742-0.124-1.24,0.006-1.919c0.143-0.747-0.28-1.506-0.96-1.823
		c0.932-1.119,0.302-2.76-1.021-3.146c-0.107-0.573-0.529-1.056-1.083-1.237c-0.348-0.114-0.552-0.062-0.874-0.234
		c-0.382-0.204-0.804-0.323-1.221-0.433c1.939-1.08,1.042-4.203-0.694-5.005c-0.454-0.21-0.964-0.247-1.442-0.1
		c-0.199-0.048-0.145-0.301-0.421-0.331c-0.287-0.032-0.573-0.072-0.861-0.093c-0.535-0.041-1.198-0.054-1.623,0.334
		c-0.318,0.291-0.161,0.495-0.616,0.59c-0.379,0.08-0.723,0.265-0.952,0.584c-2.032-2.715-5.997,1.062-3.32,3.196
		c-0.367,0.165-0.624,0.468-0.788,0.829c-1.606-1.304-4.058,0.3-3.408,2.298c0.149,0.459-0.238,0.728-0.389,1.2
		c-0.111,0.349-0.172,0.72-0.15,1.086c0.021,0.341,0.119,0.687,0.343,0.952c0.235,0.279,0.805,0.319,0.677,0.643
		c-1.237-0.779-2.751,0.666-2.006,1.933c0.311,0.527,0.936,0.801,1.534,0.68c0.101,0.699,0.54,1.005,1.164,1.234
		c-1.062,1.575,2.041,2.402,1.947,0.53c0.463,0.021,0.93-0.091,1.268-0.428c0.218,0.218,0.296,0.863,0.439,1.165
		c0.181,0.383,0.412,0.747,0.71,1.05c-0.887,0.434-0.744,1.776,0.223,2.001c0.228,0.053,0.465,0.029,0.679-0.063
		c0.067,0.237,0.196,0.456,0.375,0.626c0.386,0.368,0.963,0.459,1.449,0.244c-0.7,2.175-0.46,4.572-0.41,6.819
		c-1.47-0.004-17.619-0.061-17.619,0.068c0,1.255,0,2.511,0,3.766c0,5.982,0,11.964,0,17.947c0,3.752,0,7.504,0,11.257
		c0,0.999,0,1.999,0,2.998c0,0.18,0,0.359,0,0.539c0,0.026-1.584,0.013-1.764,0.013c7.063,0.414,14.125,0.877,21.181,1.4
		c0-0.161-0.067-1.102,0.053-1.102c0.416,0,0.832,0,1.248,0c1.556,0,3.112,0,4.668,0c0.647,0,1.294,0,1.941,0
		c0.123,0,0.798,0.093,0.89,0c0.221-0.226,0-1.778,0-2.079c0-3.019,0-6.038,0-9.057c0-0.12,0.016-1.932-0.014-1.932
		c-1.221,0-2.443,0-3.665,0c-0.11,0-0.054-6.423-0.054-7.091c0-0.626,0.017-0.509,0.623-0.509c0.996,0,1.991,0,2.987,0
		c5.478,0,10.956,0,16.433,0c0.465,0,0.357-0.048,0.357-0.522C255.233,165.621,255.233,164.53,255.233,163.439z"/>
	<path fill="#62A83D" d="M353.866,169.477c0.496,0,5.608,0.144,5.608-0.124c0-4.832,0-9.663,0-14.494c0-0.24-8.865-0.545-9.784-0.59
		c-1.965-0.098-3.93-0.193-5.895-0.286c-0.056-0.906-0.146-1.855,0.083-2.746c0.076-0.294,0.198-0.81,0.505-0.81
		c0.377,0,0.621-0.406,0.441-0.735c0.394-0.052,0.738-0.286,1.02-0.552c0.393-0.37,0.758,0.148,1.334,0.031
		c0.867-0.177,1.331-1.159,0.912-1.94c0.199,0.005,0.396-0.012,0.591-0.049c0.424-0.086,0.319,0.076,0.709,0.19
		c0.413,0.122,0.869-0.06,1.087-0.429c0.188-0.318,0.171-0.725-0.042-1.028c0.177-0.514-0.062-1.077-0.554-1.307
		c0.582-0.699,0.188-1.722-0.637-1.963c-0.146-0.782-1.327-1.015-1.982-1.188c1.21-0.674,0.649-2.622-0.434-3.123
		c-0.283-0.131-0.601-0.154-0.9-0.062c-0.049-0.065-0.097-0.13-0.146-0.195c-0.209-0.018-0.416-0.051-0.625-0.068
		c-0.334-0.027-0.749-0.042-1.022,0.19c-0.284,0.24-0.084,0.293-0.487,0.405c-0.205,0.057-0.385,0.17-0.51,0.344
		c-1.272-1.701-3.732,0.668-2.072,1.994c-0.229,0.103-0.389,0.292-0.491,0.517c-1.087-0.879-2.671,0.351-2.053,1.616
		c-0.285,0.3-0.416,0.757-0.413,1.164c0.002,0.395,0.66,1.021,0.639,1.076c-0.772-0.484-1.717,0.415-1.251,1.206
		c0.193,0.328,0.584,0.502,0.957,0.424c0.063,0.438,0.337,0.627,0.727,0.77c-0.361,0.536,0.201,1.24,0.811,0.983
		c0.247-0.104,0.412-0.349,0.412-0.617c0,0.06,0.694-0.214,0.783-0.302c0.322,0.322,0.346,1.004,0.717,1.381
		c-0.506,0.247-0.493,0.994,0.031,1.214c0.423,0.178,0.375-0.165,0.644,0.24c0.223,0.336,0.655,0.461,1.026,0.298
		c-0.314,0.973-0.309,2.036-0.288,3.047c-15.977-0.755-31.96-1.371-47.948-1.84c0,9.663,0,19.326,0,28.989c0,4.556,0,9.111,0,13.667
		c0,0.261,0,0.522,0,0.784c0,0.163,8.536,1.115,9.337,1.224c6.264,0.846,12.521,1.741,18.77,2.687
		c7.364,1.114,14.717,2.299,22.058,3.552c0-4.921,0-9.841,0-14.762c0-0.343,0-0.686,0-1.029c0-0.335-0.025-0.253-0.399-0.253
		c-0.276,0-1.141,0.186-1.141-0.157c0-0.654,0-1.308,0-1.962c0-0.709,0-1.417,0-2.126c0-0.337-0.139-0.579,0.219-0.579
		c1.394,0,2.788,0,4.182,0c0.179,0,0.949,0.124,0.949-0.099c0-0.641,0-1.281,0-1.921c0-1.807,0-3.613,0-5.419
		c0-0.528,0.119-0.576-0.428-0.576c-0.253,0-1.841,0.117-1.841-0.097c0-1.521,0-3.043,0-4.564
		C349.336,169.477,351.601,169.477,353.866,169.477z"/>
	<path fill="#62A83D" d="M1400,232.892c0-11.404,0-22.809,0-34.212c0-8.688,0-17.375,0-26.063c0-0.411-8.234-1.426-9.141-1.567
		c-4.602-0.721-9.209-1.416-13.818-2.085c-9.326-1.354-18.666-2.605-28.018-3.766c-0.034-1.584-0.229-3.17-0.173-4.755
		c0.034-0.97,0.2-1.896,0.655-2.761c0.23-0.439,1.649-0.33,1.08-1.391c0.695-0.092,1.295-0.534,1.775-1.02
		c0.361-0.365,0.301-0.132,0.711,0.049c0.352,0.155,0.742,0.211,1.123,0.164c1.476-0.184,2.327-1.825,1.625-3.138
		c0.355,0.004,0.713-0.019,1.06-0.103c0.499-0.122,0.483,0.141,0.943,0.305c0.679,0.241,1.456-0.043,1.822-0.662
		c0.439-0.742-0.124-1.24,0.006-1.919c0.143-0.747-0.28-1.506-0.961-1.823c0.932-1.119,0.302-2.76-1.021-3.146
		c-0.106-0.573-0.529-1.056-1.083-1.237c-0.348-0.114-0.552-0.062-0.874-0.234c-0.382-0.204-0.804-0.323-1.221-0.433
		c1.939-1.08,1.042-4.203-0.694-5.005c-0.454-0.209-0.964-0.247-1.442-0.1c-0.199-0.048-0.146-0.301-0.421-0.331
		c-0.287-0.032-0.573-0.072-0.861-0.093c-0.534-0.041-1.198-0.054-1.622,0.334c-0.318,0.291-0.161,0.495-0.616,0.59
		c-0.379,0.08-0.723,0.265-0.952,0.584c-2.032-2.715-5.996,1.062-3.32,3.196c-0.367,0.165-0.624,0.468-0.788,0.829
		c-1.606-1.304-4.058,0.3-3.408,2.298c0.149,0.459-0.238,0.728-0.389,1.2c-0.111,0.349-0.172,0.72-0.15,1.087
		c0.021,0.341,0.119,0.687,0.343,0.952c0.235,0.279,0.806,0.319,0.677,0.643c-1.237-0.779-2.751,0.666-2.006,1.933
		c0.311,0.527,0.936,0.801,1.534,0.68c0.101,0.699,0.539,1.005,1.164,1.234c-1.062,1.575,2.041,2.402,1.947,0.53
		c0.464,0.021,0.931-0.091,1.268-0.428c0.218,0.218,0.296,0.863,0.439,1.165c0.181,0.383,0.412,0.747,0.71,1.05
		c-0.887,0.434-0.744,1.776,0.223,2.001c0.229,0.053,0.466,0.029,0.68-0.063c0.066,0.237,0.196,0.456,0.375,0.626
		c0.385,0.368,0.962,0.459,1.448,0.244c-0.704,2.187-0.459,4.597-0.409,6.856c-6.399-0.791-12.806-1.533-19.215-2.238
		c-1.58-0.174-3.159-0.346-4.738-0.515c-0.792-0.085-1.583-0.169-2.374-0.253c-0.344-0.036-1.58,0.025-1.588-0.341
		c-0.024-1.139-0.161-2.278-0.131-3.417c0.019-0.691,0.114-1.374,0.421-1.999c0.269-0.546,0.148-0.153,0.574-0.332
		c0.323-0.135,0.457-0.515,0.29-0.824c0.487-0.064,0.911-0.363,1.254-0.697c0.367-0.357,0.89,0.187,1.472,0.092
		c1.061-0.172,1.647-1.364,1.142-2.31c0.347,0.004,0.7-0.026,1.026-0.151c0.213,0.229,0.514,0.365,0.827,0.365
		c0.515,0,0.979-0.361,1.099-0.863c0.1-0.418-0.192-0.736-0.122-1.108c0.104-0.551-0.205-1.112-0.709-1.347
		c0.688-0.825,0.223-2.039-0.755-2.325c-0.088-0.469-0.461-0.852-0.929-0.949c-0.489-0.102-0.918-0.327-1.419-0.458
		c1.48-0.824,0.733-3.293-0.678-3.763c-0.194-0.065-0.88,0.02-0.946-0.069c-0.21-0.28-0.619-0.235-0.958-0.257
		c-0.393-0.025-0.883-0.023-1.178,0.285c-0.252,0.263-0.064,0.317-0.461,0.411c-0.266,0.063-0.502,0.199-0.663,0.422
		c-1.507-2.015-4.421,0.792-2.453,2.361c-0.271,0.122-0.461,0.345-0.582,0.612c-1.1-0.89-2.806,0.052-2.574,1.469
		c0.079,0.482,0.089,0.383-0.116,0.822c-0.121,0.259-0.199,0.543-0.223,0.829c-0.047,0.587,0.193,1.154,0.809,1.3
		c-0.068,0.151-0.938-0.064-1.287,0.215c-0.383,0.306-0.508,0.851-0.29,1.292c0.212,0.431,0.7,0.667,1.17,0.571
		c0.075,0.517,0.399,0.743,0.86,0.912c-0.789,1.17,1.53,1.768,1.438,0.392c0.343,0.015,0.687-0.067,0.937-0.316
		c0.381,0.381,0.41,1.189,0.85,1.636c-0.623,0.305-0.572,1.238,0.096,1.459c0.191,0.062,0.382,0.053,0.57-0.027
		c0.048,0.167,0.131,0.312,0.252,0.437c0.284,0.292,0.726,0.37,1.096,0.206c-0.531,1.672-0.338,3.51-0.298,5.237
		c-7.603-0.796-15.21-1.538-22.823-2.233c-1.85-0.168-3.699-0.334-5.55-0.498c-0.762-0.067-0.791,0.061-0.807-0.634
		c-0.009-0.382-0.013-0.764-0.025-1.146c-0.058-1.69-0.319-3.412-0.069-5.097c0.107-0.718,0.353-1.362,0.707-1.992
		c0.676,0.206,1.276-0.504,0.939-1.132c0.695-0.092,1.295-0.534,1.775-1.02c0.361-0.365,0.301-0.132,0.711,0.049
		c0.352,0.155,0.742,0.211,1.123,0.164c1.476-0.184,2.327-1.825,1.625-3.138c0.355,0.004,0.713-0.019,1.06-0.103
		c0.499-0.122,0.483,0.141,0.943,0.305c0.679,0.241,1.456-0.043,1.822-0.662c0.439-0.742-0.124-1.24,0.006-1.919
		c0.143-0.747-0.28-1.506-0.961-1.823c0.932-1.119,0.302-2.76-1.021-3.146c-0.106-0.573-0.529-1.056-1.083-1.237
		c-0.348-0.114-0.552-0.062-0.874-0.234c-0.382-0.204-0.804-0.323-1.221-0.433c1.939-1.08,1.042-4.203-0.694-5.005
		c-0.454-0.209-0.964-0.247-1.442-0.1c-0.199-0.048-0.146-0.301-0.421-0.331c-0.287-0.032-0.573-0.072-0.861-0.093
		c-0.534-0.041-1.198-0.054-1.622,0.334c-0.318,0.291-0.161,0.495-0.616,0.59c-0.379,0.08-0.723,0.265-0.952,0.584
		c-2.032-2.715-5.996,1.062-3.32,3.196c-0.367,0.165-0.624,0.468-0.788,0.829c-1.606-1.304-4.058,0.3-3.408,2.298
		c0.149,0.459-0.238,0.728-0.389,1.2c-0.111,0.349-0.172,0.72-0.15,1.087c0.021,0.341,0.119,0.687,0.343,0.952
		c0.235,0.279,0.806,0.319,0.677,0.643c-1.237-0.779-2.751,0.666-2.006,1.933c0.311,0.527,0.936,0.801,1.534,0.68
		c0.101,0.699,0.539,1.005,1.164,1.234c-1.062,1.575,2.041,2.402,1.947,0.53c0.464,0.021,0.931-0.091,1.268-0.428
		c0.218,0.218,0.296,0.863,0.439,1.165c0.181,0.383,0.412,0.747,0.71,1.05c-0.887,0.434-0.744,1.776,0.223,2.001
		c0.229,0.053,0.466,0.029,0.68-0.063c0.066,0.237,0.196,0.456,0.375,0.626c0.385,0.368,0.962,0.459,1.448,0.244
		c-0.807,2.505-0.444,5.312-0.385,7.906c-1.614-0.141-18.787-1.339-18.788-1.577c-0.011-2.49-0.021-4.98-0.032-7.471
		c-0.014-3.333-0.001-6.666-0.001-9.999c0-6.351,0-12.703,0-19.054c0-2.171,0-4.343,0-6.514c0-0.453,0-0.906,0-1.358
		c0-0.214-0.881-0.091-1.052-0.091c-2.978,0-5.955,0-8.932,0c-0.948,0-1.897,0-2.846,0c-0.219,0-0.1,0.741-0.1,0.918
		c0,5.668,0,11.336,0,17.004c0,0.908,0,1.816,0,2.725c0,0.775-0.511,0.462-1.263,0.462c-0.287,0-2.431,0.135-2.431-0.101
		c0-0.5,0-0.999,0-1.499c0-5.572,0-11.144,0-16.716c0-4.792,0-9.584,0-14.377c0-0.327,0.07-0.348-0.261-0.348
		c-0.85,0-1.699,0-2.549,0c-3.085,0-6.171,0-9.256,0c-2.338,0-4.676,0-7.014,0c-0.342,0-0.313-0.037-0.313,0.296
		c0,0.615,0,1.229,0,1.844c0,5.71,0,11.42,0,17.13c0,4.768,0,9.536,0,14.304c0,0.499-0.031,0.384-0.574,0.384
		c-1.481,0-2.962,0-4.443,0c-0.437,0-1.446,0.29-1.446-0.262c0-0.855,0-1.71,0-2.564c0-5.395,0-10.791,0-16.186
		c0-0.388-0.143-0.262-0.525-0.262c-0.931,0-1.862,0-2.793,0c-3.094,0-6.188,0-9.282,0c-2.575,0-5.15,0-7.726,0
		c-0.152,0-0.913-0.102-0.913,0.082c0,0.811,0,1.621,0,2.431c0,3.093,0,6.186,0,9.278c0,1.096,0,2.191,0,3.286
		c0,0.642-0.005,0.526-0.663,0.526c-2.83,0-5.659,0-8.488,0c-0.8,0-1.007,0.231-1.007-0.575c0-1.45,0-2.9,0-4.35
		c0-1.104,0-2.207,0-3.31c0-0.056-1.017-0.025-1.104-0.025c-2.56,0-5.118,0-7.677,0c-4.769,0-9.536,0-14.304,0
		c-0.004,0-0.002,13.277-0.002,14.52c0,0.136,0.085,1.083-0.063,1.083c-0.502,0-1.003,0-1.504,0c-2.455,0-4.909,0-7.363,0
		c-5.989,0-11.979,0-17.968,0c-0.847,0-1.692,0-2.539,0c-0.261,0-0.112,1.955-0.112,2.216c0,3.334,0,6.668,0,10.002
		c-3.256-0.103-6.511-0.209-9.767-0.305c-0.596-0.017-0.392-0.332-0.392-0.879c0-2.065,0-4.131,0-6.196c0-6.295,0-12.59,0-18.885
		c0-2.065,0-4.131,0-6.196c0-0.046,0.003-0.868-0.003-0.868c-0.541,0-1.082,0-1.623,0c-5.592,0-11.183,0-16.774,0
		c-0.112,0-0.992-0.063-0.992,0.049c0,0.523,0,1.045,0,1.568c0,2.584,0,5.168,0,7.752c0,5.501,0,11.002,0,16.503
		c0,0.24,0.141,0.745-0.148,0.745c-1.237,0-2.474,0-3.71,0c-1.361,0-2.723,0-4.084,0c-0.614,0-0.368-0.481-0.368-1.046
		c0-2.959,0-5.918,0-8.876c0-0.943,0-1.886,0-2.829c0-0.225-1.606-0.099-1.831-0.099c-1.57,0-3.141,0-4.711,0
		c-0.618,0-1.237,0-1.855,0c-0.119,0-0.746-0.089-0.837,0c-0.166,0.163,0,1.362,0,1.581c0,1.294,0,2.587,0,3.881
		c0,3.165,0,6.33,0,9.495c0,1.009,0,2.019,0,3.028c0,0.171,0,0.343,0,0.514c0,0.017-3.842,0.021-4.204,0.024
		c-3.629,0.02-7.258,0.065-10.887,0.134c0-0.577,0-1.153,0-1.73c0-0.65,0.071-0.605-0.567-0.605c-0.349,0-3.061,0.109-3.061-0.095
		c0-2.603,0-5.205,0-7.808c0-0.09,0.059-0.555-0.048-0.555c-0.624,0-1.247,0-1.87,0c-0.644,0-1.286,0-1.93,0
		c-0.327,0-0.184,0.349-0.184,0.638c0,1.454,0,2.908,0,4.362c0,0.19,0.117,0.638-0.116,0.638c-0.694,0-1.39,0-2.084,0
		c-0.194,0-1.295,0.146-1.428,0c-0.075-0.082,0-0.585,0-0.689c0-1.321,0-2.642,0-3.963c0-1.578,0-3.156,0-4.734
		c0-0.347,0.248-2.026,0-2.292c-0.074-0.08-0.679,0-0.781,0c-0.695,0-1.39,0-2.085,0c-1.521,0-3.041,0-4.562,0
		c-0.591,0-1.038-0.252-1.038,0.375c0,1.018,0,2.036,0,3.055c0,3.139,0,6.277,0,9.416c0,0.984,0,1.968,0,2.952
		c0,0.667-1.304,0.312-1.828,0.312c-0.706,0-1.413,0-2.12,0c-0.368,0-0.486,0.115-0.486-0.252c0-1.382,0-2.764,0-4.146
		c0-0.223,0.076-2.448-0.064-2.448c-0.901,0-1.804,0-2.705,0c-2.987,0-5.975,0-8.962,0c-0.529,0-1.168,0.261-1.168-0.339
		c0-1.416,0-2.832,0-4.249c0-0.287,0.158-2.259-0.125-2.259c-1.115,0-2.23,0-3.347,0c-1.574,0-3.148,0-4.724,0
		c-0.36,0-1.883-0.231-1.883,0.201c0,0.31,0.012,3.424-0.012,3.424c-1.267,0-2.534,0-3.802,0c-0.189,0-0.621,0.121-0.621-0.115
		c0-0.534,0-1.068,0-1.602c0-1.489,0-2.979,0-4.468c0-0.062,0.028-0.662-0.022-0.662c-0.357,0-0.715,0-1.072,0
		c-1.509,0-3.019,0-4.527,0c-1.172,0-2.343,0-3.515,0c-0.305,0-0.135,1.683-0.135,1.962c0,1.567,0,3.135,0,4.702
		c0,0.504,0,1.008,0,1.513c0,0.399-0.102,0.281-0.515,0.281c-0.508,0-2.307,0.347-2.307-0.273c0-1.004,0-2.008,0-3.013
		c0-3.096,0-6.192,0-9.288c0-0.766,0-1.531,0-2.297c0-0.067-2.145-0.031-2.313-0.031c-1.56,0-3.118,0-4.678,0
		c-0.376,0-1.475-0.256-1.475,0.223c0,2.575,0,5.149,0,7.724c0,2.183,0,4.366,0,6.548c0,0.008-1.376,0.004-1.51,0.004
		c-0.205,0-0.103-0.446-0.103-0.614c0-1.405,0-2.811,0-4.215c0-1.338,0-2.675,0-4.013c0-0.128,0.079-0.42-0.078-0.42
		c-0.562,0-1.123,0-1.685,0c-1.282,0-2.563,0-3.846,0c-0.077,0-0.035,1.401-0.035,1.525c0,4.895,0.021,9.789,0,14.684
		c-0.003,0.563-0.005,1.127-0.008,1.691c4.936,0,9.87,0,14.806,0c1.135,0,2.271,0,3.406,0c0.558,0,0.995-0.23,0.995,0.376
		c0,0.703,0,1.406,0,2.109c0,0.634-0.527,0.376-1.096,0.376c-0.085,0-0.039,0.924-0.039,1.025c0,5.594,0,11.188,0,16.781
		c0,2.619,0,5.237,0,7.855c0,0.585,0,1.171,0,1.756c0,0.281,1.069,0.12,1.293,0.12c2.814,0,5.628,0,8.441,0
		c0.666,0,0.393-0.545,0.393-1.156c0-1.499,0-2.998,0-4.497c0-1.327,0-2.653,0-3.979c0-0.266,0.11-0.479-0.18-0.479
		c-0.907,0-0.729-0.074-0.729-0.955c0-0.099-0.011-1.335,0.01-1.335c0.172,0,0.344,0,0.516,0c0.933,0,1.865,0,2.798,0
		c5.679,0,11.356,0,17.034,0c0.603,0,0.914-0.217,0.914,0.426c0,0.661,0,1.322,0,1.984c0,0.251-0.844-0.074-0.844,0.119
		c0,1.973,0,3.945,0,5.917c0,3.169,0,6.339,0,9.508c0,1.074,0,2.149,0,3.223c0,0.379-0.183,0.806,0.243,0.806
		c2.746,0,5.493,0,8.239,0c0.42,0,0.84,0,1.26,0c0.321,0,0.181,0.292,0.181,0.583c0,0.746,0,1.492,0,2.238
		c0,0.535,0.215,0.908-0.36,0.908c-0.146,0-1.456-0.035-1.456,0.031c0,0.468,0,0.936,0,1.403c0,1.47,0,2.939,0,4.408
		c0,0.164-0.104,0.569,0.1,0.569c0.647,0,1.296,0,1.943,0c0.657,0,1.314,0,1.973,0c0.437,0,0.265,0.311,0.265,0.719
		c0,0.752,0,1.504,0,2.256c0,0.612,0.209,0.885-0.434,0.885c-0.966,0-0.799-0.001-0.799,0.884c0,2.642,0,5.284,0,7.925
		c0,3.055,0,6.109,0,9.164c0,0.608,0,1.216,0,1.825c0,0.145,3.742,0.803,4.121,0.883c1.694,0.361,3.388,0.726,5.081,1.093
		c0-1.126,0-2.253,0-3.379c0-0.69,0-1.38,0-2.071c0-0.479,0.17-0.719-0.34-0.719c-0.72,0-0.522-0.184-0.522-0.878
		c0-0.271-0.19-1.642,0-1.824c0.239-0.23,2.996,0.21,2.996-0.045c0-1.317,0-2.634,0-3.951c0-0.599-0.007-0.492-0.636-0.492
		c-0.824,0-0.635-0.112-0.635-0.919c0-0.25-0.176-1.522,0-1.691c0.116-0.112,0.895,0,1.049,0c1.514,0,3.028,0,4.543,0
		c0.58,0,1.354,0.31,1.354-0.361c0-1.099,0-2.197,0-3.296c0-2.962,0-5.925,0-8.887c0-0.324,0-0.648,0-0.971
		c0-0.366-0.59,0.078-0.59-0.23c0-0.285-0.181-1.452,0-1.644c0.054-0.057,0.482,0,0.556,0c2.759,0,5.519,0,8.278,0
		c0.396,0,6.056-0.029,6.056,0.027c0,0.277,0.174,1.394,0,1.577c-0.142,0.148-0.636-0.201-0.636,0.096c0,0.479,0,0.957,0,1.436
		c0,5.46,0,10.921,0,16.381c0,5.224,0,10.448,0,15.672c0,0.346,0,0.691,0,1.037c0,0.142,3.433,0.835,3.783,0.921
		c1.536,0.376,3.071,0.758,4.604,1.146c4.749,1.203,9.491,2.454,14.177,3.889c1.031,0.315,2.225,0.986,3.315,0.986
		c0.366,0,0.733,0,1.101,0c1.588,0,3.177,0,4.766,0c6.178,0,12.356,0,18.535,0c9.386,0,18.771,0,28.158,0
		c11.639,0,23.278,0,34.917,0c12.939,0,25.878,0,38.816,0c13.285,0,26.569,0,39.854,0c12.676,0,25.353,0,38.029,0
		c11.114,0,22.229,0,33.344,0c8.599,0,17.197,0,25.797,0c5.129,0,10.259,0,15.388,0c0.966,0,1.932,0,2.896,0
		C1400.234,236.566,1400,233.292,1400,232.892z"/>
	<path fill="#62A83D" d="M798.733,183.317c25.618,2.171,51.179,5.01,76.68,8.28c11.334,1.453,22.656,2.995,33.967,4.615
		c0-9.789,0-19.577,0-29.366c0-0.564,0-1.128,0-1.692c-25.999,3.62-51.935,7.704-77.795,12.207
		C820.62,179.269,809.67,181.254,798.733,183.317z"/>
	<path fill="#62A83D" d="M984.071,176.477c1.258,0,12.403,0.087,12.403-0.086c0-5.157,0-10.315,0-15.473c0-1.976,0-3.952,0-5.927
		c-12.987,1.191-25.959,2.543-38.915,4.03c-6.584,0.756-13.165,1.546-19.741,2.37c-0.374,0.047-4.358,0.465-4.358,0.553
		c0,0.187,0,0.374,0,0.561c0,1.067,0,2.134,0,3.202c0,3.166,0,6.332,0,9.498c0,1.098,0,2.195,0,3.292
		c0,0.543-0.144,0.644,0.402,0.644c2.809,0,5.617,0,8.426,0c1.07,0,2.14,0,3.21,0c0.462,0,0.202,1.977,0.202,2.378
		c0,0.644,0,1.287,0,1.93c0,0.479-0.616,0.252-1.021,0.252c-0.149,0-1.219-0.075-1.219,0.059c0,0.453,0,0.906,0,1.358
		c0,1.56,0,3.119,0,4.679c0,0.506,0,1.012,0,1.518c0,0.327,0.099,0.227,0.429,0.227c1.434,0,2.868,0,4.303,0
		c0.255,0,0.549-0.125,0.549,0.162c0,0.667,0,1.334,0,2.001c0,0.697,0,1.394,0,2.09c0,0.629-0.111,0.466-0.76,0.466
		c-0.468,0-0.761-0.186-0.761,0.3c0,0.68,0,1.36,0,2.041c0,1.008,0,2.016,0,3.024c0,0.569,0.608,0.396,1.108,0.476
		c1.228,0.195,2.455,0.391,3.683,0.588c0-0.516,0-1.031,0-1.546c0-0.261,0.185-1.558,0-1.744c-0.155-0.156-1.271,0.19-1.271-0.073
		c0-0.709,0-1.419,0-2.129c0-0.416-0.064-0.408,0.331-0.408c0.63,0,1.26,0,1.89,0c1.433,0,2.865,0,4.298,0
		c0.664,0,0.427-0.362,0.427-0.993c0-1.322,0-2.643,0-3.965c0-2.752,0-5.505,0-8.257c0-0.103,0.063-0.434-0.062-0.434
		c-0.161,0-0.528,0.101-0.528-0.096c0-0.379,0-0.758,0-1.137c0-0.279-0.127-0.507,0.167-0.507c0.362,0,0.726,0,1.088,0
		c2.975,0,5.949,0,8.924,0c1.262,0,2.523,0,3.786,0c0.279,0,0.559,0,0.839,0c0.208,0,0.086,0.896,0.086,1.074
		c0,0.113,0.072,0.529-0.066,0.529c-0.056,0-0.569-0.011-0.569,0.009c0,0.161,0,0.321,0,0.482c0,0.881,0,1.762,0,2.643
		c0,4.907,0,9.815,0,14.722c0,1.562,0,3.125,0,4.687c0,0.103,0,0.206,0,0.309c0,0.092,2.828,0.486,3.107,0.533
		c2.691,0.456,5.384,0.916,8.074,1.38c0-4.577,0-9.154,0-13.73c0-0.141-0.988-0.06-1.141-0.06c-0.567,0-0.399-0.173-0.399-0.718
		c0-1.339,0-2.678,0-4.018c0-0.194,2.667-0.09,2.969-0.09c0.418,0,2.382,0.269,2.382-0.217c0-2.597,0-5.194,0-7.791
		c0-0.013-1.553-0.006-1.682-0.006c-0.671,0-0.589,0.037-0.589-0.619C984.071,179.171,984.071,177.824,984.071,176.477z"/>
	<path fill="#62A83D" d="M971.697,145.795c0.245,0,0.623,0.724,1.076,0.89c-0.789,1.17,1.53,1.768,1.438,0.392
		c0.343,0.015,0.687-0.067,0.937-0.316c0.381,0.381,0.41,1.189,0.85,1.636c-0.623,0.305-0.572,1.238,0.096,1.459
		c0.191,0.062,0.382,0.053,0.57-0.027c0.048,0.167,0.131,0.312,0.252,0.437c0.284,0.292,0.726,0.37,1.096,0.206
		c-0.477,1.498-0.346,3.122-0.311,4.669c0.009,0.407,0.018,0.814,0.027,1.222c0.008,0.37,0.255,0.236,0.598,0.244
		c-0.021-0.997-0.057-1.988-0.115-2.984c-0.054-0.917-0.104-1.868,0.127-2.766c0.09-0.348,0.234-0.959,0.598-0.959
		c0.444,0,0.735-0.477,0.522-0.871c0.487-0.064,0.911-0.363,1.254-0.697c0.367-0.357,0.889,0.187,1.472,0.092
		c1.061-0.172,1.647-1.364,1.142-2.31c0.347,0.004,0.7-0.026,1.026-0.151c0.213,0.229,0.514,0.365,0.827,0.365
		c0.515,0,0.979-0.361,1.099-0.863c0.1-0.418-0.192-0.736-0.122-1.108c0.104-0.551-0.205-1.112-0.709-1.347
		c0.688-0.825,0.223-2.039-0.755-2.325c-0.088-0.469-0.461-0.852-0.929-0.949c-0.489-0.102-0.918-0.327-1.419-0.458
		c1.48-0.824,0.733-3.293-0.678-3.763c-0.194-0.065-0.88,0.02-0.946-0.069c-0.21-0.28-0.619-0.235-0.958-0.257
		c-0.393-0.025-0.883-0.023-1.178,0.285c-0.252,0.263-0.064,0.317-0.461,0.411c-0.266,0.063-0.502,0.199-0.663,0.422
		c-1.507-2.015-4.421,0.792-2.453,2.361c-0.271,0.122-0.461,0.345-0.582,0.612c-1.1-0.89-2.806,0.052-2.574,1.469
		c0.079,0.482,0.089,0.383-0.116,0.822c-0.121,0.259-0.199,0.543-0.223,0.829c-0.047,0.587,0.193,1.154,0.809,1.3
		c-0.107,0.238-0.554-0.062-0.866,0.01c-0.308,0.072-0.572,0.283-0.711,0.565C970.401,144.964,970.929,145.795,971.697,145.795z"/>
</g>
</svg>
