<?xml version="1.0" encoding="UTF-8"?>
<!DOCTYPE svg PUBLIC "-//W3C//DTD SVG 1.1//EN" "http://www.w3.org/Graphics/SVG/1.1/DTD/svg11.dtd">
<svg version="1.1" xmlns="http://www.w3.org/2000/svg" xmlns:xlink="http://www.w3.org/1999/xlink" x="0px" y="0px" width="45" height="45" viewBox="0, 0, 45, 45">
  <g id="Layer 1">
    <path d="M43.428,22.503 C43.428,34.058 34.057,43.428 22.5,43.428 C10.943,43.428 1.572,34.058 1.572,22.503 C1.572,10.941 10.943,1.572 22.5,1.572 C34.057,1.572 43.428,10.941 43.428,22.503" fill="#4C4D4F"/>
    <path d="M39.989,22.503 C39.989,32.16 32.159,39.99 22.501,39.99 C12.843,39.99 5.011,32.16 5.011,22.503 C5.011,12.843 12.843,5.014 22.501,5.014 C32.159,5.014 39.989,12.843 39.989,22.503" fill="#0083C6"/>
    <path d="M29.142,14.701 C30.654,14.812 32.098,15.194 33.307,15.821 L33.307,28.446 C31.796,27.789 30.04,27.435 28.249,27.435 C26.457,27.435 24.702,27.789 23.192,28.446 L23.192,15.821 C24.4,15.194 25.844,14.812 27.354,14.701 C27.651,14.679 27.949,14.664 28.249,14.664 C28.549,14.664 28.847,14.679 29.142,14.701 M16.752,14.664 C17.052,14.664 17.35,14.679 17.646,14.701 C19.157,14.812 20.6,15.194 21.81,15.821 L21.81,28.446 C20.299,27.79 18.544,27.435 16.752,27.435 C14.961,27.435 13.205,27.79 11.694,28.445 L11.694,15.821 C12.904,15.194 14.348,14.812 15.858,14.701 C16.155,14.679 16.451,14.664 16.752,14.664 M34.536,14.701 L34.138,14.701 C32.461,13.786 30.381,13.283 28.249,13.283 C26.175,13.283 24.152,13.756 22.501,14.623 C20.849,13.756 18.825,13.283 16.752,13.283 C14.62,13.283 12.539,13.786 10.864,14.701 L10.465,14.701 C9.875,14.701 9.395,15.179 9.395,15.769 L9.395,29.72 C9.395,30.309 9.875,30.788 10.465,30.788 L20.046,30.788 L20.046,31.076 C20.046,31.547 20.43,31.931 20.901,31.931 L23.279,31.931 C23.75,31.931 24.133,31.547 24.133,31.076 L24.133,30.788 L34.536,30.788 C35.126,30.788 35.605,30.309 35.605,29.72 L35.605,15.769 C35.605,15.179 35.126,14.701 34.536,14.701" fill="#FFFFFF"/>
  </g>
  <defs/>
</svg>
