<?xml version="1.0" encoding="UTF-8"?>
<!DOCTYPE svg PUBLIC "-//W3C//DTD SVG 1.1//EN" "http://www.w3.org/Graphics/SVG/1.1/DTD/svg11.dtd">
<svg version="1.1" xmlns="http://www.w3.org/2000/svg" xmlns:xlink="http://www.w3.org/1999/xlink" x="0px" y="0px" width="45" height="45" viewBox="0, 0, 45, 45">
  <g id="Layer 1" display="none">
    <path d="M43.428,22.503 C43.428,34.058 34.057,43.428 22.5,43.428 C10.943,43.428 1.572,34.058 1.572,22.503 C1.572,10.941 10.943,1.572 22.5,1.572 C34.057,1.572 43.428,10.941 43.428,22.503" fill="#4C4D4F"/>
    <path d="M39.989,22.503 C39.989,32.16 32.159,39.99 22.501,39.99 C12.843,39.99 5.011,32.16 5.011,22.503 C5.011,12.843 12.843,5.014 22.501,5.014 C32.159,5.014 39.989,12.843 39.989,22.503" fill="#0083C6"/>
    <path d="M29.142,14.701 C30.654,14.812 32.098,15.194 33.307,15.821 L33.307,28.446 C31.796,27.789 30.04,27.435 28.249,27.435 C26.457,27.435 24.702,27.789 23.192,28.446 L23.192,15.821 C24.4,15.194 25.844,14.812 27.354,14.701 C27.651,14.679 27.949,14.664 28.249,14.664 C28.549,14.664 28.847,14.679 29.142,14.701 M16.752,14.664 C17.052,14.664 17.35,14.679 17.646,14.701 C19.157,14.812 20.6,15.194 21.81,15.821 L21.81,28.446 C20.299,27.79 18.544,27.435 16.752,27.435 C14.961,27.435 13.205,27.79 11.694,28.445 L11.694,15.821 C12.904,15.194 14.348,14.812 15.858,14.701 C16.155,14.679 16.451,14.664 16.752,14.664 M34.536,14.701 L34.138,14.701 C32.461,13.786 30.381,13.283 28.249,13.283 C26.175,13.283 24.152,13.756 22.501,14.623 C20.849,13.756 18.825,13.283 16.752,13.283 C14.62,13.283 12.539,13.786 10.864,14.701 L10.465,14.701 C9.875,14.701 9.395,15.179 9.395,15.769 L9.395,29.72 C9.395,30.309 9.875,30.788 10.465,30.788 L20.046,30.788 L20.046,31.076 C20.046,31.547 20.43,31.931 20.901,31.931 L23.279,31.931 C23.75,31.931 24.133,31.547 24.133,31.076 L24.133,30.788 L34.536,30.788 C35.126,30.788 35.605,30.309 35.605,29.72 L35.605,15.769 C35.605,15.179 35.126,14.701 34.536,14.701" fill="#FFFFFF"/>
  </g>
  <g id="Layer 2">
    <path d="M40,31.513 C40,36.201 36.201,40 31.513,40 L13.127,40 C8.439,40 4.64,36.201 4.64,31.513 L4.64,13.126 C4.64,8.439 8.439,4.64 13.127,4.64 L31.513,4.64 C36.201,4.64 40,8.439 40,13.126 z" fill="#868687"/>
    <path d="M40.5,32.013 C40.5,36.701 36.701,40.5 32.013,40.5 L13.627,40.5 C8.939,40.5 5.14,36.701 5.14,32.013 L5.14,13.626 C5.14,8.939 8.939,5.14 13.627,5.14 L32.013,5.14 C36.701,5.14 40.5,8.939 40.5,13.626 L40.5,32.013 z" fill-opacity="0" stroke="#004A71" stroke-width="4"/>
    <path d="M16.461,33.427 L28.179,33.427 C30.074,33.427 31.617,31.885 31.617,29.989 L31.617,14.59 C31.617,12.98 30.308,11.67 28.698,11.67 L26.993,11.67 C27.134,11.764 27.249,11.898 27.319,12.061 L28.11,13.906 L28.698,13.906 C29.075,13.906 29.382,14.213 29.382,14.59 L29.382,29.989 C29.382,30.653 28.844,31.192 28.179,31.192 L16.461,31.192 C15.796,31.192 15.257,30.653 15.257,29.989 L15.257,14.59 C15.257,14.213 15.565,13.906 15.942,13.906 L16.763,13.906 L17.555,12.061 C17.625,11.898 17.739,11.764 17.881,11.67 L15.942,11.67 C14.333,11.67 13.023,12.98 13.023,14.59 L13.023,29.989 C13.023,31.885 14.565,33.427 16.461,33.427" fill="#FFFFFF"/>
    <path d="M19.538,10.86 C19.184,10.86 18.867,11.08 18.743,11.411 L18.17,12.939 L17.775,13.99 C17.675,14.256 17.871,14.541 18.157,14.541 L26.717,14.541 C27.002,14.541 27.198,14.256 27.098,13.99 L26.704,12.939 L26.131,11.411 C26.006,11.08 25.688,10.86 25.335,10.86" fill="#FFFFFF"/>
    <path d="M27.996,18.017 L21.346,18.017 C20.968,18.017 20.662,18.323 20.662,18.702 L20.662,18.848 C20.662,19.226 20.968,19.532 21.346,19.532 L27.996,19.532 z" fill="#FFFFFF"/>
    <path d="M27.996,22.249 L21.346,22.249 C20.968,22.249 20.662,22.556 20.662,22.934 L20.662,23.08 C20.662,23.458 20.968,23.764 21.346,23.764 L27.996,23.764 z" fill="#FFFFFF"/>
    <path d="M20.662,27.166 L20.662,27.313 C20.662,27.691 20.968,27.997 21.346,27.997 L27.996,27.997 L27.996,26.482 L21.346,26.482 C20.968,26.482 20.662,26.788 20.662,27.166" fill="#FFFFFF"/>
    <path d="M19.543,17.286 L17.969,18.461 L17.675,18.056 L16.919,18.604 L17.769,19.777 L20.102,18.035 z" fill="#FFFFFF"/>
    <path d="M19.543,21.445 L17.969,22.62 L17.675,22.214 L16.919,22.763 L17.769,23.935 L20.102,22.194 z" fill="#FFFFFF"/>
    <path d="M19.543,25.512 L17.969,26.686 L17.675,26.281 L16.919,26.829 L17.769,28.001 L20.102,26.261 z" fill="#FFFFFF"/>
  </g>
  <defs/>
</svg>
